G04 #@! TF.GenerationSoftware,KiCad,Pcbnew,10.0.5*
G04 #@! TF.CreationDate,2026-09-11T10:41:04+08:00*
G04 #@! TF.ProjectId,Bullet_Charger,42756c6c-6574-45f4-9368-61726765722e,rev?*
G04 #@! TF.SameCoordinates,Original*
G04 #@! TF.FileFunction,Copper,L2,Bot*
G04 #@! TF.FilePolarity,Positive*
%FSLAX46Y46*%
G04 Gerber Fmt 4.6, Leading zero omitted, Abs format (unit mm)*
G04 Created by KiCad (PCBNEW 10.0.5) date 2026-09-11 10:41:04*
%MOMM*%
%LPD*%
G01*
G04 APERTURE LIST*
G04 #@! TA.AperFunction,SMDPad,CuDef*
%ADD10C,1.000000*%
G04 #@! TD*
G04 #@! TA.AperFunction,ViaPad*
%ADD11C,0.600000*%
G04 #@! TD*
G04 #@! TA.AperFunction,ViaPad*
%ADD12C,0.500000*%
G04 #@! TD*
G04 #@! TA.AperFunction,ViaPad*
%ADD13C,0.700000*%
G04 #@! TD*
G04 #@! TA.AperFunction,Conductor*
%ADD14C,0.800000*%
G04 #@! TD*
G04 APERTURE END LIST*
D10*
G04 #@! TO.P,TP3,1,1_1*
G04 #@! TO.N,Net-(D1-A)*
X40450000Y-94025000D03*
G04 #@! TD*
G04 #@! TO.P,TP2,1,1_1*
G04 #@! TO.N,LED_1+*
X46575000Y-98000000D03*
G04 #@! TD*
D11*
G04 #@! TO.N,Net-(D1-A)*
X40450000Y-94025000D03*
D12*
G04 #@! TO.N,GND*
X43300000Y-92300000D03*
X46675000Y-92300000D03*
D11*
X36400000Y-89800000D03*
X49025000Y-87725000D03*
D13*
X47475000Y-92300000D03*
X36550000Y-98100000D03*
D11*
X38050000Y-85800000D03*
D13*
X48460000Y-98100000D03*
X41500000Y-97000000D03*
D11*
X44300000Y-92300000D03*
D13*
X44300000Y-93700000D03*
D11*
X43725000Y-90950000D03*
D13*
X43510000Y-97000000D03*
D11*
X44875000Y-90950000D03*
D13*
G04 #@! TO.N,LED_1+*
X39650000Y-98000000D03*
X46610000Y-98000000D03*
G04 #@! TD*
G04 #@! TO.N,LED_1+*
D14*
X39650000Y-98000000D02*
X46610000Y-98000000D01*
G04 #@! TD*
G04 #@! TA.AperFunction,Conductor*
G04 #@! TO.N,GND*
G36*
X49303691Y-84619407D02*
G01*
X49339655Y-84668907D01*
X49344500Y-84699500D01*
X49344500Y-101000500D01*
X49325593Y-101058691D01*
X49276093Y-101094655D01*
X49245500Y-101099500D01*
X36144500Y-101099500D01*
X36086309Y-101080593D01*
X36050345Y-101031093D01*
X36045500Y-101000500D01*
X36045500Y-97935930D01*
X38999500Y-97935930D01*
X38999500Y-98064069D01*
X39024499Y-98189742D01*
X39024500Y-98189747D01*
X39073534Y-98308125D01*
X39073538Y-98308133D01*
X39105184Y-98355493D01*
X39144724Y-98414669D01*
X39235331Y-98505276D01*
X39298848Y-98547717D01*
X39341866Y-98576461D01*
X39341870Y-98576463D01*
X39341873Y-98576465D01*
X39460256Y-98625501D01*
X39585931Y-98650500D01*
X46167647Y-98650500D01*
X46214233Y-98664630D01*
X46215216Y-98662792D01*
X46219504Y-98665084D01*
X46316081Y-98705087D01*
X46356087Y-98721658D01*
X46501082Y-98750500D01*
X46501083Y-98750500D01*
X46648917Y-98750500D01*
X46648918Y-98750500D01*
X46793913Y-98721658D01*
X46930495Y-98665084D01*
X47053416Y-98582951D01*
X47157951Y-98478416D01*
X47240084Y-98355495D01*
X47296658Y-98218913D01*
X47325500Y-98073918D01*
X47325500Y-97926082D01*
X47296658Y-97781087D01*
X47240084Y-97644505D01*
X47157951Y-97521584D01*
X47053416Y-97417049D01*
X46930495Y-97334916D01*
X46930493Y-97334915D01*
X46793914Y-97278342D01*
X46648918Y-97249500D01*
X46501082Y-97249500D01*
X46501081Y-97249500D01*
X46356085Y-97278342D01*
X46219504Y-97334915D01*
X46215216Y-97337208D01*
X46214233Y-97335369D01*
X46167647Y-97349500D01*
X39585930Y-97349500D01*
X39523093Y-97361999D01*
X39460256Y-97374499D01*
X39460255Y-97374499D01*
X39460252Y-97374500D01*
X39341874Y-97423534D01*
X39341866Y-97423538D01*
X39235331Y-97494724D01*
X39235327Y-97494727D01*
X39144727Y-97585327D01*
X39144724Y-97585331D01*
X39073538Y-97691866D01*
X39073534Y-97691874D01*
X39024500Y-97810252D01*
X39024499Y-97810257D01*
X38999500Y-97935930D01*
X36045500Y-97935930D01*
X36045500Y-93951082D01*
X39699500Y-93951082D01*
X39699500Y-94098918D01*
X39728342Y-94243913D01*
X39784916Y-94380495D01*
X39867049Y-94503416D01*
X39971584Y-94607951D01*
X40094505Y-94690084D01*
X40231087Y-94746658D01*
X40376082Y-94775500D01*
X40376083Y-94775500D01*
X40523917Y-94775500D01*
X40523918Y-94775500D01*
X40668913Y-94746658D01*
X40805495Y-94690084D01*
X40928416Y-94607951D01*
X41032951Y-94503416D01*
X41115084Y-94380495D01*
X41171658Y-94243913D01*
X41200500Y-94098918D01*
X41200500Y-93951082D01*
X41171658Y-93806087D01*
X41115084Y-93669505D01*
X41032951Y-93546584D01*
X40928416Y-93442049D01*
X40805495Y-93359916D01*
X40805493Y-93359915D01*
X40668914Y-93303342D01*
X40523918Y-93274500D01*
X40376082Y-93274500D01*
X40376081Y-93274500D01*
X40231085Y-93303342D01*
X40094506Y-93359915D01*
X39971585Y-93442048D01*
X39867048Y-93546585D01*
X39784915Y-93669506D01*
X39728342Y-93806085D01*
X39728342Y-93806087D01*
X39699500Y-93951082D01*
X36045500Y-93951082D01*
X36045500Y-84699500D01*
X36064407Y-84641309D01*
X36113907Y-84605345D01*
X36144500Y-84600500D01*
X49245500Y-84600500D01*
X49303691Y-84619407D01*
G37*
G04 #@! TD.AperFunction*
G04 #@! TD*
M02*
