%TF.GenerationSoftware,KiCad,Pcbnew,10.0.5*%
%TF.CreationDate,2026-09-11T10:41:05+08:00*%
%TF.ProjectId,Bullet_Charger,42756c6c-6574-45f4-9368-61726765722e,rev?*%
%TF.SameCoordinates,Original*%
%TF.FileFunction,Drillmap*%
%TF.FilePolarity,Positive*%
%FSLAX45Y45*%
G04 Gerber Fmt 4.5, Leading zero omitted, Abs format (unit mm)*
G04 Created by KiCad (PCBNEW 10.0.5) date 2026-09-11 10:41:05*
%MOMM*%
%LPD*%
G01*
G04 APERTURE LIST*
%ADD10C,0.050000*%
%ADD11C,0.200000*%
G04 APERTURE END LIST*
D10*
X3554500Y-8410000D02*
X4984500Y-8410000D01*
X4984500Y-10160000D01*
X3554500Y-10160000D01*
X3554500Y-8410000D01*
D11*
X3812777Y-10473984D02*
X3812777Y-10273984D01*
X3812777Y-10273984D02*
X3860396Y-10273984D01*
X3860396Y-10273984D02*
X3888967Y-10283508D01*
X3888967Y-10283508D02*
X3908015Y-10302555D01*
X3908015Y-10302555D02*
X3917539Y-10321603D01*
X3917539Y-10321603D02*
X3927062Y-10359698D01*
X3927062Y-10359698D02*
X3927062Y-10388270D01*
X3927062Y-10388270D02*
X3917539Y-10426365D01*
X3917539Y-10426365D02*
X3908015Y-10445412D01*
X3908015Y-10445412D02*
X3888967Y-10464460D01*
X3888967Y-10464460D02*
X3860396Y-10473984D01*
X3860396Y-10473984D02*
X3812777Y-10473984D01*
X4012777Y-10473984D02*
X4012777Y-10340650D01*
X4012777Y-10378746D02*
X4022301Y-10359698D01*
X4022301Y-10359698D02*
X4031824Y-10350174D01*
X4031824Y-10350174D02*
X4050872Y-10340650D01*
X4050872Y-10340650D02*
X4069920Y-10340650D01*
X4136586Y-10473984D02*
X4136586Y-10340650D01*
X4136586Y-10273984D02*
X4127062Y-10283508D01*
X4127062Y-10283508D02*
X4136586Y-10293031D01*
X4136586Y-10293031D02*
X4146110Y-10283508D01*
X4146110Y-10283508D02*
X4136586Y-10273984D01*
X4136586Y-10273984D02*
X4136586Y-10293031D01*
X4260396Y-10473984D02*
X4241348Y-10464460D01*
X4241348Y-10464460D02*
X4231824Y-10445412D01*
X4231824Y-10445412D02*
X4231824Y-10273984D01*
X4365158Y-10473984D02*
X4346110Y-10464460D01*
X4346110Y-10464460D02*
X4336586Y-10445412D01*
X4336586Y-10445412D02*
X4336586Y-10273984D01*
X4593729Y-10473984D02*
X4593729Y-10273984D01*
X4593729Y-10273984D02*
X4660396Y-10416841D01*
X4660396Y-10416841D02*
X4727063Y-10273984D01*
X4727063Y-10273984D02*
X4727063Y-10473984D01*
X4908015Y-10473984D02*
X4908015Y-10369222D01*
X4908015Y-10369222D02*
X4898491Y-10350174D01*
X4898491Y-10350174D02*
X4879444Y-10340650D01*
X4879444Y-10340650D02*
X4841348Y-10340650D01*
X4841348Y-10340650D02*
X4822301Y-10350174D01*
X4908015Y-10464460D02*
X4888967Y-10473984D01*
X4888967Y-10473984D02*
X4841348Y-10473984D01*
X4841348Y-10473984D02*
X4822301Y-10464460D01*
X4822301Y-10464460D02*
X4812777Y-10445412D01*
X4812777Y-10445412D02*
X4812777Y-10426365D01*
X4812777Y-10426365D02*
X4822301Y-10407317D01*
X4822301Y-10407317D02*
X4841348Y-10397793D01*
X4841348Y-10397793D02*
X4888967Y-10397793D01*
X4888967Y-10397793D02*
X4908015Y-10388270D01*
X5003253Y-10340650D02*
X5003253Y-10540650D01*
X5003253Y-10350174D02*
X5022301Y-10340650D01*
X5022301Y-10340650D02*
X5060396Y-10340650D01*
X5060396Y-10340650D02*
X5079444Y-10350174D01*
X5079444Y-10350174D02*
X5088967Y-10359698D01*
X5088967Y-10359698D02*
X5098491Y-10378746D01*
X5098491Y-10378746D02*
X5098491Y-10435889D01*
X5098491Y-10435889D02*
X5088967Y-10454936D01*
X5088967Y-10454936D02*
X5079444Y-10464460D01*
X5079444Y-10464460D02*
X5060396Y-10473984D01*
X5060396Y-10473984D02*
X5022301Y-10473984D01*
X5022301Y-10473984D02*
X5003253Y-10464460D01*
X5184205Y-10454936D02*
X5193729Y-10464460D01*
X5193729Y-10464460D02*
X5184205Y-10473984D01*
X5184205Y-10473984D02*
X5174682Y-10464460D01*
X5174682Y-10464460D02*
X5184205Y-10454936D01*
X5184205Y-10454936D02*
X5184205Y-10473984D01*
X5184205Y-10350174D02*
X5193729Y-10359698D01*
X5193729Y-10359698D02*
X5184205Y-10369222D01*
X5184205Y-10369222D02*
X5174682Y-10359698D01*
X5174682Y-10359698D02*
X5184205Y-10350174D01*
X5184205Y-10350174D02*
X5184205Y-10369222D01*
M02*
