G04 #@! TF.GenerationSoftware,KiCad,Pcbnew,10.0.5*
G04 #@! TF.CreationDate,2026-09-11T10:41:04+08:00*
G04 #@! TF.ProjectId,Bullet_Charger,42756c6c-6574-45f4-9368-61726765722e,rev?*
G04 #@! TF.SameCoordinates,Original*
G04 #@! TF.FileFunction,Copper,L1,Top*
G04 #@! TF.FilePolarity,Positive*
%FSLAX46Y46*%
G04 Gerber Fmt 4.6, Leading zero omitted, Abs format (unit mm)*
G04 Created by KiCad (PCBNEW 10.0.5) date 2026-09-11 10:41:04*
%MOMM*%
%LPD*%
G01*
G04 APERTURE LIST*
G04 Aperture macros list*
%AMRoundRect*
0 Rectangle with rounded corners*
0 $1 Rounding radius*
0 $2 $3 $4 $5 $6 $7 $8 $9 X,Y pos of 4 corners*
0 Add a 4 corners polygon primitive as box body*
4,1,4,$2,$3,$4,$5,$6,$7,$8,$9,$2,$3,0*
0 Add four circle primitives for the rounded corners*
1,1,$1+$1,$2,$3*
1,1,$1+$1,$4,$5*
1,1,$1+$1,$6,$7*
1,1,$1+$1,$8,$9*
0 Add four rect primitives between the rounded corners*
20,1,$1+$1,$2,$3,$4,$5,0*
20,1,$1+$1,$4,$5,$6,$7,0*
20,1,$1+$1,$6,$7,$8,$9,0*
20,1,$1+$1,$8,$9,$2,$3,0*%
%AMFreePoly0*
4,1,13,0.900000,0.500000,2.600000,0.500000,2.600000,-0.500000,0.900000,-0.500000,0.400000,-1.000000,-0.400000,-1.000000,-0.900000,-0.500000,-2.600000,-0.500000,-2.600000,0.500000,-0.900000,0.500000,-0.400000,1.000000,0.400000,1.000000,0.900000,0.500000,0.900000,0.500000,$1*%
G04 Aperture macros list end*
G04 #@! TA.AperFunction,SMDPad,CuDef*
%ADD10C,1.000000*%
G04 #@! TD*
G04 #@! TA.AperFunction,SMDPad,CuDef*
%ADD11RoundRect,0.250000X-0.625000X0.312500X-0.625000X-0.312500X0.625000X-0.312500X0.625000X0.312500X0*%
G04 #@! TD*
G04 #@! TA.AperFunction,SMDPad,CuDef*
%ADD12RoundRect,0.249999X0.450001X1.850001X-0.450001X1.850001X-0.450001X-1.850001X0.450001X-1.850001X0*%
G04 #@! TD*
G04 #@! TA.AperFunction,SMDPad,CuDef*
%ADD13RoundRect,0.600000X0.035000X0.550000X-0.035000X0.550000X-0.035000X-0.550000X0.035000X-0.550000X0*%
G04 #@! TD*
G04 #@! TA.AperFunction,SMDPad,CuDef*
%ADD14RoundRect,0.225000X0.250000X-0.225000X0.250000X0.225000X-0.250000X0.225000X-0.250000X-0.225000X0*%
G04 #@! TD*
G04 #@! TA.AperFunction,SMDPad,CuDef*
%ADD15RoundRect,0.250000X0.300000X0.300000X-0.300000X0.300000X-0.300000X-0.300000X0.300000X-0.300000X0*%
G04 #@! TD*
G04 #@! TA.AperFunction,SMDPad,CuDef*
%ADD16RoundRect,0.250000X0.325000X0.650000X-0.325000X0.650000X-0.325000X-0.650000X0.325000X-0.650000X0*%
G04 #@! TD*
G04 #@! TA.AperFunction,SMDPad,CuDef*
%ADD17RoundRect,0.150000X-0.150000X-0.700000X0.150000X-0.700000X0.150000X0.700000X-0.150000X0.700000X0*%
G04 #@! TD*
G04 #@! TA.AperFunction,SMDPad,CuDef*
%ADD18RoundRect,0.250000X-0.250000X-1.100000X0.250000X-1.100000X0.250000X1.100000X-0.250000X1.100000X0*%
G04 #@! TD*
G04 #@! TA.AperFunction,SMDPad,CuDef*
%ADD19RoundRect,0.175000X-0.575000X-0.175000X0.575000X-0.175000X0.575000X0.175000X-0.575000X0.175000X0*%
G04 #@! TD*
G04 #@! TA.AperFunction,SMDPad,CuDef*
%ADD20FreePoly0,0.000000*%
G04 #@! TD*
G04 #@! TA.AperFunction,ViaPad*
%ADD21C,0.600000*%
G04 #@! TD*
G04 #@! TA.AperFunction,ViaPad*
%ADD22C,0.500000*%
G04 #@! TD*
G04 #@! TA.AperFunction,ViaPad*
%ADD23C,0.700000*%
G04 #@! TD*
G04 #@! TA.AperFunction,Conductor*
%ADD24C,0.800000*%
G04 #@! TD*
G04 #@! TA.AperFunction,Conductor*
%ADD25C,0.300000*%
G04 #@! TD*
G04 #@! TA.AperFunction,Conductor*
%ADD26C,0.600000*%
G04 #@! TD*
G04 #@! TA.AperFunction,Conductor*
%ADD27C,0.200000*%
G04 #@! TD*
G04 #@! TA.AperFunction,Conductor*
%ADD28C,0.400000*%
G04 #@! TD*
G04 #@! TA.AperFunction,Conductor*
%ADD29C,0.500000*%
G04 #@! TD*
G04 APERTURE END LIST*
D10*
G04 #@! TO.P,TP1,1,1_1*
G04 #@! TO.N,VIN*
X46400000Y-86100000D03*
G04 #@! TD*
D11*
G04 #@! TO.P,R1,1*
G04 #@! TO.N,VIN*
X48325000Y-90837500D03*
G04 #@! TO.P,R1,2*
G04 #@! TO.N,LED_1+*
X48325000Y-93762500D03*
G04 #@! TD*
D12*
G04 #@! TO.P,L1,1,1_1*
G04 #@! TO.N,Net-(D1-A)*
X40450000Y-92600000D03*
G04 #@! TO.P,L1,2,2_2*
G04 #@! TO.N,LED_1-*
X36750000Y-92600000D03*
G04 #@! TD*
D13*
G04 #@! TO.P,J3,1,Pin_1_1*
G04 #@! TO.N,VIN*
X44135000Y-85800000D03*
G04 #@! TO.P,J3,2,Pin_2_2*
G04 #@! TO.N,GND*
X37135000Y-85800000D03*
G04 #@! TD*
D14*
G04 #@! TO.P,C3,1*
G04 #@! TO.N,VIN*
X48100000Y-89275000D03*
G04 #@! TO.P,C3,2*
G04 #@! TO.N,GND*
X48100000Y-87725000D03*
G04 #@! TD*
D15*
G04 #@! TO.P,D1,1,K_1*
G04 #@! TO.N,VIN*
X45700000Y-88400000D03*
G04 #@! TO.P,D1,2,A_2*
G04 #@! TO.N,Net-(D1-A)*
X42900000Y-88400000D03*
G04 #@! TD*
D16*
G04 #@! TO.P,C1,1*
G04 #@! TO.N,VIN*
X40125000Y-88650000D03*
G04 #@! TO.P,C1,2*
G04 #@! TO.N,GND*
X37175000Y-88650000D03*
G04 #@! TD*
G04 #@! TO.P,C2,1*
G04 #@! TO.N,VIN*
X42100000Y-85800000D03*
G04 #@! TO.P,C2,2*
G04 #@! TO.N,GND*
X39150000Y-85800000D03*
G04 #@! TD*
D17*
G04 #@! TO.P,J1,1,Pin_1_1*
G04 #@! TO.N,LED_1-*
X38400000Y-96800000D03*
G04 #@! TO.P,J1,2,Pin_2_2*
G04 #@! TO.N,LED_1+*
X39650000Y-96800000D03*
D18*
G04 #@! TO.P,J1,MP,MountPin_MP*
G04 #@! TO.N,GND*
X36550000Y-100000000D03*
X41500000Y-100000000D03*
G04 #@! TD*
D17*
G04 #@! TO.P,J2,1,Pin_1_1*
G04 #@! TO.N,LED_1-*
X45360000Y-96800000D03*
G04 #@! TO.P,J2,2,Pin_2_2*
G04 #@! TO.N,LED_1+*
X46610000Y-96800000D03*
D18*
G04 #@! TO.P,J2,MP,MountPin_MP*
G04 #@! TO.N,GND*
X43510000Y-100000000D03*
X48460000Y-100000000D03*
G04 #@! TD*
D19*
G04 #@! TO.P,U1,1,SW_1*
G04 #@! TO.N,Net-(D1-A)*
X42450000Y-90800000D03*
D20*
G04 #@! TO.P,U1,2,GND_2*
G04 #@! TO.N,GND*
X44300000Y-92300000D03*
D19*
G04 #@! TO.P,U1,4,CSN_4*
G04 #@! TO.N,LED_1+*
X46150000Y-93800000D03*
G04 #@! TO.P,U1,5,VIN_5*
G04 #@! TO.N,VIN*
X46150000Y-90800000D03*
G04 #@! TD*
D21*
G04 #@! TO.N,Net-(D1-A)*
X40450000Y-94025000D03*
D22*
G04 #@! TO.N,GND*
X43300000Y-92300000D03*
X46675000Y-92300000D03*
D21*
X36400000Y-89800000D03*
X49025000Y-87725000D03*
D23*
X47475000Y-92300000D03*
X36550000Y-98100000D03*
D21*
X38050000Y-85800000D03*
D23*
X48460000Y-98100000D03*
X41500000Y-97000000D03*
D21*
X44300000Y-92300000D03*
D23*
X44300000Y-93700000D03*
D21*
X43725000Y-90950000D03*
D23*
X43510000Y-97000000D03*
D21*
X44875000Y-90950000D03*
D23*
G04 #@! TO.N,LED_1+*
X39650000Y-98000000D03*
X46610000Y-98000000D03*
G04 #@! TD*
G04 #@! TO.N,Net-(D1-A)*
D24*
X42900000Y-89225000D02*
X42900000Y-90350000D01*
G04 #@! TO.N,VIN*
D25*
X46350000Y-86100000D02*
X46400000Y-86100000D01*
X45700000Y-86750000D02*
X46350000Y-86100000D01*
X45700000Y-87365000D02*
X45700000Y-86750000D01*
G04 #@! TO.N,GND*
D26*
X46675000Y-92300000D02*
X47475000Y-92300000D01*
G04 #@! TO.N,VIN*
D24*
X46262500Y-90162500D02*
X46787500Y-90162500D01*
X45700000Y-88400000D02*
X45700000Y-89600000D01*
X45700000Y-89600000D02*
X46262500Y-90162500D01*
D26*
X45225000Y-88925000D02*
X45700000Y-88450000D01*
X45225000Y-89950000D02*
X45225000Y-88925000D01*
X46075000Y-90800000D02*
X45225000Y-89950000D01*
X45700000Y-88450000D02*
X45700000Y-88400000D01*
X46150000Y-90800000D02*
X46075000Y-90800000D01*
X46187500Y-90837500D02*
X46150000Y-90800000D01*
X47225000Y-90837500D02*
X48325000Y-90837500D01*
D24*
X45700000Y-89312500D02*
X45700000Y-88400000D01*
D26*
X47225000Y-90837500D02*
X46187500Y-90837500D01*
D24*
X46575000Y-89275000D02*
X48100000Y-89275000D01*
X45700000Y-88400000D02*
X46575000Y-89275000D01*
X45700000Y-88525000D02*
X47062500Y-89887500D01*
D26*
X47675000Y-89275000D02*
X47062500Y-89887500D01*
D24*
X45700000Y-88400000D02*
X45700000Y-88525000D01*
X47275000Y-90250000D02*
X47275000Y-90100000D01*
X47737500Y-90250000D02*
X47275000Y-90250000D01*
X47275000Y-90100000D02*
X48100000Y-89275000D01*
X48325000Y-90837500D02*
X47737500Y-90250000D01*
D26*
X48100000Y-90612500D02*
X48100000Y-89725000D01*
X48325000Y-90837500D02*
X48100000Y-90612500D01*
X46787500Y-90162500D02*
X46150000Y-90800000D01*
D27*
X48325000Y-89500000D02*
X48100000Y-89275000D01*
G04 #@! TO.N,LED_1-*
D26*
X36750000Y-94300000D02*
X38400000Y-95950000D01*
X36750000Y-92600000D02*
X36750000Y-94300000D01*
X43910000Y-95350000D02*
X45360000Y-96800000D01*
X38400000Y-95950000D02*
X38400000Y-96800000D01*
X37800000Y-95350000D02*
X43910000Y-95350000D01*
X36750000Y-94300000D02*
X37800000Y-95350000D01*
G04 #@! TO.N,LED_1+*
X46610000Y-96615000D02*
X46610000Y-96800000D01*
D28*
X48325000Y-93762500D02*
X46187500Y-93762500D01*
X46187500Y-93762500D02*
X46150000Y-93800000D01*
D26*
X46610000Y-96800000D02*
X46610000Y-98000000D01*
X48325000Y-94900000D02*
X46610000Y-96615000D01*
X48325000Y-93762500D02*
X48325000Y-94900000D01*
X39650000Y-96800000D02*
X39650000Y-98000000D01*
G04 #@! TO.N,GND*
D24*
X44300000Y-92300000D02*
X44300000Y-93700000D01*
D26*
X36550000Y-100000000D02*
X36550000Y-98100000D01*
X41500000Y-100000000D02*
X41500000Y-97000000D01*
X37175000Y-88650000D02*
X36400000Y-89425000D01*
D24*
X37135000Y-85800000D02*
X39150000Y-85800000D01*
D26*
X39150000Y-85800000D02*
X38050000Y-85800000D01*
X48460000Y-100000000D02*
X48460000Y-98100000D01*
X46575000Y-92300000D02*
X46675000Y-92300000D01*
X36400000Y-89425000D02*
X36400000Y-89800000D01*
D29*
X48100000Y-87725000D02*
X49025000Y-87725000D01*
D26*
X43510000Y-100000000D02*
X43510000Y-97000000D01*
G04 #@! TO.N,Net-(D1-A)*
D24*
X42900000Y-88400000D02*
X42900000Y-89225000D01*
X42900000Y-90350000D02*
X42450000Y-90800000D01*
X42450000Y-90800000D02*
X40450000Y-90800000D01*
G04 #@! TO.N,VIN*
X40125000Y-87875000D02*
X40125000Y-88650000D01*
X42100000Y-85900000D02*
X40125000Y-87875000D01*
X44135000Y-85800000D02*
X42100000Y-85800000D01*
X42100000Y-85800000D02*
X42100000Y-85900000D01*
X44135000Y-85800000D02*
X45700000Y-87365000D01*
X45700000Y-87365000D02*
X45700000Y-88400000D01*
D26*
X48100000Y-89275000D02*
X47675000Y-89275000D01*
X47062500Y-89887500D02*
X46787500Y-90162500D01*
G04 #@! TD*
G04 #@! TA.AperFunction,Conductor*
G04 #@! TO.N,GND*
G36*
X49285338Y-94518514D02*
G01*
X49329815Y-94560510D01*
X49332381Y-94565209D01*
X49344500Y-94612670D01*
X49344500Y-100984819D01*
X49339654Y-101015412D01*
X49335532Y-101028098D01*
X49299580Y-101077589D01*
X49295459Y-101080584D01*
X49237271Y-101099500D01*
X36160180Y-101099500D01*
X36129587Y-101094654D01*
X36116901Y-101090532D01*
X36067401Y-101054568D01*
X36067394Y-101054558D01*
X36064400Y-101050436D01*
X36045500Y-100992256D01*
X36045500Y-95057400D01*
X36064407Y-94999209D01*
X36113907Y-94963245D01*
X36175093Y-94963245D01*
X36194870Y-94972172D01*
X37281529Y-95614462D01*
X37301159Y-95629684D01*
X37809417Y-96137942D01*
X37827622Y-96163000D01*
X37838709Y-96184759D01*
X37849500Y-96229705D01*
X37849500Y-97531522D01*
X37849508Y-97531572D01*
X37849566Y-97531937D01*
X37864352Y-97625298D01*
X37864362Y-97625322D01*
X37921948Y-97738339D01*
X37921950Y-97738342D01*
X38011658Y-97828050D01*
X38124696Y-97885646D01*
X38218481Y-97900500D01*
X38581518Y-97900499D01*
X38581520Y-97900499D01*
X38586593Y-97900499D01*
X38593093Y-97898665D01*
X38628411Y-97893072D01*
X38667615Y-97886863D01*
X38671506Y-97886557D01*
X38671509Y-97886557D01*
X38679142Y-97885038D01*
X38683064Y-97884416D01*
X38692838Y-97876711D01*
X38788342Y-97828050D01*
X38878050Y-97738342D01*
X38878052Y-97738337D01*
X38878956Y-97737095D01*
X38880199Y-97736191D01*
X38883559Y-97732832D01*
X38884091Y-97733364D01*
X38928455Y-97701131D01*
X38989641Y-97701130D01*
X39039141Y-97737093D01*
X39058049Y-97795284D01*
X39057792Y-97802411D01*
X39048941Y-97925043D01*
X39048943Y-97925129D01*
X39049500Y-97935542D01*
X39049500Y-98079057D01*
X39090423Y-98231784D01*
X39169480Y-98368716D01*
X39281284Y-98480520D01*
X39418216Y-98559577D01*
X39570943Y-98600500D01*
X39570945Y-98600500D01*
X39729055Y-98600500D01*
X39729057Y-98600500D01*
X39881784Y-98559577D01*
X40018716Y-98480520D01*
X40130520Y-98368716D01*
X40209577Y-98231784D01*
X40250500Y-98079057D01*
X40250500Y-97935665D01*
X40250981Y-97927920D01*
X40251057Y-97925047D01*
X40251057Y-97925043D01*
X40205621Y-97295461D01*
X40203587Y-97287507D01*
X40200500Y-97262978D01*
X40200500Y-96717814D01*
X40200499Y-96717758D01*
X40200499Y-96068474D01*
X40194480Y-96030473D01*
X40194479Y-95999503D01*
X40195020Y-95996088D01*
X40196566Y-95986325D01*
X40224339Y-95931814D01*
X40225166Y-95930987D01*
X40272019Y-95904771D01*
X40278423Y-95903234D01*
X40301527Y-95900500D01*
X43625287Y-95900500D01*
X43655878Y-95905345D01*
X43668215Y-95909353D01*
X43679104Y-95912891D01*
X43718517Y-95937042D01*
X44769417Y-96987941D01*
X44787622Y-97012999D01*
X44798709Y-97034758D01*
X44809500Y-97079704D01*
X44809500Y-97531522D01*
X44809508Y-97531572D01*
X44809566Y-97531937D01*
X44824352Y-97625298D01*
X44824362Y-97625322D01*
X44881948Y-97738339D01*
X44881950Y-97738342D01*
X44971658Y-97828050D01*
X45084696Y-97885646D01*
X45178481Y-97900500D01*
X45541518Y-97900499D01*
X45541520Y-97900499D01*
X45546593Y-97900499D01*
X45553093Y-97898665D01*
X45588411Y-97893072D01*
X45627615Y-97886863D01*
X45631506Y-97886557D01*
X45631509Y-97886557D01*
X45639142Y-97885038D01*
X45643064Y-97884416D01*
X45652838Y-97876711D01*
X45748342Y-97828050D01*
X45838050Y-97738342D01*
X45838052Y-97738337D01*
X45838956Y-97737095D01*
X45840199Y-97736191D01*
X45843559Y-97732832D01*
X45844091Y-97733364D01*
X45888455Y-97701131D01*
X45949641Y-97701130D01*
X45999141Y-97737093D01*
X46018049Y-97795284D01*
X46017792Y-97802411D01*
X46008941Y-97925043D01*
X46008943Y-97925129D01*
X46009500Y-97935542D01*
X46009500Y-98079057D01*
X46050423Y-98231784D01*
X46129480Y-98368716D01*
X46241284Y-98480520D01*
X46378216Y-98559577D01*
X46530943Y-98600500D01*
X46530945Y-98600500D01*
X46689055Y-98600500D01*
X46689057Y-98600500D01*
X46841784Y-98559577D01*
X46978716Y-98480520D01*
X47090520Y-98368716D01*
X47169577Y-98231784D01*
X47210500Y-98079057D01*
X47210500Y-97935665D01*
X47210981Y-97927920D01*
X47211057Y-97925047D01*
X47211057Y-97925043D01*
X47165621Y-97295461D01*
X47163587Y-97287507D01*
X47160500Y-97262978D01*
X47160500Y-96899712D01*
X47165344Y-96869123D01*
X47172891Y-96845892D01*
X47197040Y-96806483D01*
X48765510Y-95238015D01*
X48837984Y-95112485D01*
X48875500Y-94972475D01*
X48875500Y-94972472D01*
X48876347Y-94966042D01*
X48877855Y-94966240D01*
X48884788Y-94934993D01*
X49037992Y-94606695D01*
X49079732Y-94561961D01*
X49093107Y-94555804D01*
X49195434Y-94517639D01*
X49211753Y-94513099D01*
X49224657Y-94510675D01*
X49285338Y-94518514D01*
G37*
G04 #@! TD.AperFunction*
G04 #@! TA.AperFunction,Conductor*
G36*
X41391334Y-84605344D02*
G01*
X41399436Y-84607976D01*
X41448938Y-84643937D01*
X41467849Y-84702126D01*
X41449356Y-84759748D01*
X41444672Y-84766293D01*
X41423498Y-84787927D01*
X41417465Y-84792443D01*
X41417462Y-84792445D01*
X41417454Y-84792454D01*
X41417450Y-84792458D01*
X41385017Y-84835781D01*
X41331200Y-84907671D01*
X41280912Y-85042504D01*
X41280908Y-85042520D01*
X41280908Y-85042521D01*
X41274500Y-85102132D01*
X41274500Y-85538795D01*
X41255593Y-85596986D01*
X41255283Y-85597410D01*
X40639752Y-86435238D01*
X40637691Y-86438567D01*
X40636978Y-86438125D01*
X40623446Y-86456605D01*
X40211613Y-86868439D01*
X40197272Y-86880305D01*
X40183369Y-86889757D01*
X40183359Y-86889765D01*
X39755053Y-87324994D01*
X39754495Y-87325557D01*
X39619723Y-87460329D01*
X39616639Y-87464088D01*
X39616569Y-87464030D01*
X39608620Y-87473795D01*
X39446527Y-87638510D01*
X39444407Y-87640500D01*
X39442446Y-87642461D01*
X39441210Y-87644113D01*
X39436661Y-87649746D01*
X39425201Y-87662917D01*
X39423454Y-87665193D01*
X39406658Y-87690071D01*
X39403862Y-87694003D01*
X39356200Y-87757671D01*
X39305912Y-87892504D01*
X39305910Y-87892508D01*
X39305910Y-87892511D01*
X39305908Y-87892522D01*
X39299955Y-87947902D01*
X39299500Y-87952132D01*
X39299500Y-89347920D01*
X39299584Y-89348648D01*
X39304281Y-89392349D01*
X39305908Y-89407480D01*
X39305909Y-89407485D01*
X39311858Y-89423434D01*
X39356200Y-89542327D01*
X39442449Y-89657541D01*
X39442522Y-89657633D01*
X39442799Y-89657879D01*
X39444588Y-89659144D01*
X39529142Y-89722441D01*
X39557668Y-89743796D01*
X39557669Y-89743796D01*
X39557670Y-89743797D01*
X39691544Y-89793728D01*
X39692985Y-89794285D01*
X39694247Y-89794466D01*
X39697767Y-89794655D01*
X39752127Y-89800500D01*
X40497872Y-89800499D01*
X40557483Y-89794091D01*
X40624907Y-89768943D01*
X40624910Y-89768942D01*
X40690697Y-89744406D01*
X40694030Y-89743230D01*
X40697582Y-89742047D01*
X40705167Y-89734186D01*
X40807546Y-89657546D01*
X40893796Y-89542331D01*
X40893798Y-89542327D01*
X40944089Y-89407488D01*
X40944090Y-89407485D01*
X40944091Y-89407483D01*
X40950500Y-89347873D01*
X40950499Y-88205781D01*
X40960658Y-88162098D01*
X41149631Y-87777792D01*
X41168462Y-87751480D01*
X41539581Y-87380361D01*
X41555607Y-87367377D01*
X41652049Y-87304658D01*
X42172020Y-86966505D01*
X42225993Y-86950499D01*
X42472867Y-86950499D01*
X42472872Y-86950499D01*
X42532483Y-86944091D01*
X42599907Y-86918943D01*
X42599910Y-86918942D01*
X42665697Y-86894406D01*
X42669030Y-86893230D01*
X42672582Y-86892047D01*
X42680167Y-86884186D01*
X42782546Y-86807546D01*
X42868796Y-86692331D01*
X42886442Y-86645021D01*
X42897651Y-86614964D01*
X42935700Y-86567049D01*
X42961585Y-86554848D01*
X43001609Y-86542667D01*
X43062782Y-86543812D01*
X43064268Y-86544339D01*
X43250000Y-86611883D01*
X43298224Y-86649540D01*
X43304856Y-86660936D01*
X43377567Y-86807546D01*
X43379156Y-86810750D01*
X43379158Y-86810753D01*
X43495060Y-86954940D01*
X43639247Y-87070842D01*
X43804979Y-87153037D01*
X43984505Y-87197683D01*
X44004415Y-87199032D01*
X44004421Y-87199034D01*
X44004422Y-87199033D01*
X44011367Y-87199504D01*
X44025384Y-87200455D01*
X44025975Y-87200500D01*
X44243954Y-87200500D01*
X44244018Y-87200500D01*
X44244612Y-87200455D01*
X44258932Y-87199484D01*
X44285495Y-87197683D01*
X44301698Y-87193653D01*
X44362730Y-87197953D01*
X44363737Y-87198368D01*
X44667426Y-87325557D01*
X44775371Y-87370766D01*
X44807130Y-87392077D01*
X44888848Y-87473795D01*
X44957456Y-87542402D01*
X44985234Y-87596919D01*
X44984439Y-87632274D01*
X44920216Y-87945782D01*
X44920191Y-87946004D01*
X44920161Y-87946128D01*
X44919877Y-87947902D01*
X44919739Y-87947879D01*
X44914610Y-87969182D01*
X44905911Y-87992506D01*
X44905908Y-87992520D01*
X44905908Y-87992521D01*
X44899500Y-88052132D01*
X44899500Y-88155681D01*
X44895846Y-88182328D01*
X44784493Y-88580767D01*
X44774884Y-88603619D01*
X44731595Y-88678599D01*
X44731594Y-88678603D01*
X44712017Y-88712510D01*
X44712016Y-88712512D01*
X44712016Y-88712513D01*
X44686569Y-88807485D01*
X44674500Y-88852526D01*
X44674500Y-88871719D01*
X44674023Y-88881427D01*
X44669500Y-88927329D01*
X44669500Y-89423434D01*
X44672597Y-89438999D01*
X44674500Y-89458315D01*
X44674500Y-90022479D01*
X44693171Y-90092157D01*
X44693172Y-90092162D01*
X44712014Y-90162479D01*
X44712015Y-90162484D01*
X44712019Y-90162493D01*
X44784490Y-90288016D01*
X44784491Y-90288016D01*
X45045503Y-90549028D01*
X45058238Y-90564670D01*
X45128765Y-90672015D01*
X45133240Y-90678825D01*
X45149500Y-90733186D01*
X45149500Y-91008492D01*
X45165280Y-91108123D01*
X45165281Y-91108128D01*
X45165284Y-91108136D01*
X45226460Y-91228200D01*
X45226468Y-91228213D01*
X45226470Y-91228217D01*
X45226472Y-91228220D01*
X45321780Y-91323528D01*
X45321782Y-91323529D01*
X45321788Y-91323533D01*
X45322149Y-91323716D01*
X45438825Y-91383166D01*
X45441930Y-91384885D01*
X45445673Y-91385630D01*
X45449547Y-91385935D01*
X45502986Y-91394397D01*
X45517536Y-91396702D01*
X45517538Y-91396703D01*
X45535517Y-91399550D01*
X45541510Y-91400500D01*
X45541512Y-91400500D01*
X46673038Y-91400500D01*
X46689866Y-91401940D01*
X46699706Y-91403638D01*
X46702735Y-91403959D01*
X46736046Y-91405302D01*
X47122611Y-91395638D01*
X47178558Y-91411291D01*
X47239644Y-91450499D01*
X47423208Y-91568319D01*
X47429062Y-91572381D01*
X47457670Y-91593797D01*
X47466940Y-91597254D01*
X47480467Y-91603585D01*
X47480490Y-91603543D01*
X47481277Y-91603965D01*
X47481401Y-91604023D01*
X47481647Y-91604163D01*
X47483721Y-91605205D01*
X47483829Y-91605260D01*
X47483841Y-91605266D01*
X47508435Y-91616049D01*
X47508442Y-91616051D01*
X47508461Y-91616060D01*
X47508522Y-91616083D01*
X47521641Y-91618840D01*
X47535875Y-91622965D01*
X47591457Y-91643695D01*
X47592983Y-91644285D01*
X47594247Y-91644466D01*
X47597767Y-91644655D01*
X47652127Y-91650500D01*
X48997872Y-91650499D01*
X49057483Y-91644091D01*
X49192331Y-91593796D01*
X49192331Y-91593795D01*
X49195432Y-91592639D01*
X49211753Y-91588099D01*
X49224658Y-91585675D01*
X49285339Y-91593515D01*
X49329815Y-91635510D01*
X49332381Y-91640209D01*
X49344500Y-91687670D01*
X49344500Y-92906757D01*
X49343228Y-92910669D01*
X49339654Y-92937351D01*
X49336133Y-92948187D01*
X49326917Y-92960870D01*
X49325593Y-92964948D01*
X49322124Y-92967468D01*
X49300169Y-92997687D01*
X49241979Y-93016593D01*
X49236618Y-93016593D01*
X49195490Y-93007646D01*
X49192323Y-93006199D01*
X49079162Y-92963993D01*
X49079154Y-92963990D01*
X49057488Y-92955910D01*
X49057483Y-92955909D01*
X49057481Y-92955908D01*
X49057477Y-92955908D01*
X49044357Y-92954497D01*
X49044353Y-92954496D01*
X49028507Y-92952792D01*
X49026249Y-92952550D01*
X49026248Y-92952549D01*
X48997876Y-92949500D01*
X48997873Y-92949500D01*
X48997870Y-92949500D01*
X47652133Y-92949500D01*
X47652129Y-92949500D01*
X47643938Y-92949500D01*
X47637975Y-92951021D01*
X47629855Y-92951894D01*
X47592519Y-92955907D01*
X47592518Y-92955908D01*
X47592514Y-92955909D01*
X47592511Y-92955909D01*
X47556423Y-92969368D01*
X47539215Y-92973852D01*
X47539240Y-92973974D01*
X47536960Y-92974440D01*
X47536912Y-92974453D01*
X47536857Y-92974461D01*
X47536851Y-92974462D01*
X47532426Y-92975595D01*
X47532418Y-92975598D01*
X47485420Y-92992689D01*
X47485417Y-92992690D01*
X46999441Y-93225545D01*
X46938793Y-93233639D01*
X46935713Y-93233023D01*
X46898805Y-93225032D01*
X46898805Y-93225031D01*
X46898795Y-93225030D01*
X46871378Y-93219093D01*
X46860254Y-93215690D01*
X46852743Y-93214244D01*
X46850430Y-93214062D01*
X46810072Y-93207670D01*
X46792878Y-93204946D01*
X46758492Y-93199500D01*
X46758490Y-93199500D01*
X46758488Y-93199500D01*
X45541512Y-93199500D01*
X45541510Y-93199500D01*
X45541507Y-93199500D01*
X45441875Y-93215280D01*
X45441870Y-93215281D01*
X45321783Y-93276469D01*
X45226469Y-93371783D01*
X45165281Y-93491870D01*
X45165280Y-93491875D01*
X45149500Y-93591506D01*
X45149500Y-94008492D01*
X45165280Y-94108123D01*
X45165281Y-94108128D01*
X45165282Y-94108131D01*
X45165283Y-94108132D01*
X45219338Y-94214219D01*
X45226472Y-94228220D01*
X45321780Y-94323528D01*
X45321782Y-94323529D01*
X45321788Y-94323533D01*
X45322149Y-94323716D01*
X45438825Y-94383166D01*
X45441930Y-94384885D01*
X45445673Y-94385630D01*
X45449547Y-94385935D01*
X45502986Y-94394397D01*
X45517536Y-94396702D01*
X45517538Y-94396703D01*
X45535517Y-94399550D01*
X45541510Y-94400500D01*
X45541512Y-94400500D01*
X46758490Y-94400500D01*
X46779885Y-94397111D01*
X46813877Y-94391727D01*
X46858124Y-94384720D01*
X46861149Y-94383179D01*
X46869850Y-94378745D01*
X46869851Y-94378743D01*
X46928427Y-94348897D01*
X46940200Y-94343830D01*
X46948101Y-94341020D01*
X46988565Y-94326631D01*
X47049725Y-94324950D01*
X47064505Y-94330627D01*
X47202407Y-94396703D01*
X47229782Y-94409820D01*
X47486259Y-94532712D01*
X47486261Y-94532712D01*
X47486264Y-94532714D01*
X47516737Y-94541209D01*
X47524726Y-94543807D01*
X47556890Y-94555803D01*
X47604805Y-94593854D01*
X47612005Y-94606695D01*
X47622320Y-94628799D01*
X47655154Y-94699157D01*
X47662629Y-94759883D01*
X47635446Y-94811026D01*
X46787055Y-95659417D01*
X46761998Y-95677621D01*
X46740240Y-95688708D01*
X46695293Y-95699500D01*
X46428473Y-95699500D01*
X46428424Y-95699508D01*
X46428061Y-95699566D01*
X46334700Y-95714352D01*
X46334676Y-95714362D01*
X46221661Y-95771947D01*
X46131948Y-95861660D01*
X46080326Y-95962972D01*
X46062116Y-95988034D01*
X46054061Y-95996088D01*
X45999543Y-96023862D01*
X45939122Y-96014292D01*
X45936317Y-96012863D01*
X45893052Y-95969604D01*
X45889673Y-95962972D01*
X45857841Y-95900499D01*
X45857841Y-95900500D01*
X45838050Y-95861658D01*
X45748342Y-95771950D01*
X45694243Y-95744385D01*
X45669652Y-95719793D01*
X45541525Y-95699500D01*
X45541522Y-95699500D01*
X45178482Y-95699500D01*
X45178476Y-95699500D01*
X45122537Y-95708359D01*
X45091562Y-95708359D01*
X45070244Y-95704982D01*
X45015730Y-95677205D01*
X45009029Y-95670504D01*
X44952987Y-95614462D01*
X44248015Y-94909490D01*
X44122485Y-94837016D01*
X44122484Y-94837015D01*
X44122481Y-94837014D01*
X44018773Y-94809225D01*
X44006514Y-94805064D01*
X44006433Y-94805030D01*
X43999913Y-94804172D01*
X43982477Y-94799500D01*
X41462091Y-94799500D01*
X41431494Y-94794653D01*
X41420659Y-94791132D01*
X41371161Y-94755166D01*
X41352256Y-94696979D01*
X41352256Y-94687509D01*
X41358498Y-94652912D01*
X41394091Y-94557484D01*
X41400500Y-94497874D01*
X41400500Y-91735897D01*
X41419407Y-91677706D01*
X41460499Y-91644903D01*
X41895432Y-91458505D01*
X41934430Y-91450500D01*
X42514068Y-91450500D01*
X42514069Y-91450500D01*
X42639744Y-91425501D01*
X42669520Y-91413166D01*
X42669523Y-91413166D01*
X42672898Y-91411768D01*
X42691468Y-91406134D01*
X42710232Y-91402401D01*
X42729546Y-91400500D01*
X43058490Y-91400500D01*
X43079885Y-91397111D01*
X43158126Y-91384719D01*
X43278220Y-91323528D01*
X43373528Y-91228220D01*
X43434719Y-91108126D01*
X43448601Y-91020473D01*
X43450500Y-91008489D01*
X43450500Y-90741703D01*
X43454762Y-90712967D01*
X43458050Y-90702127D01*
X43462922Y-90686064D01*
X43475347Y-90659799D01*
X43476465Y-90658127D01*
X43525501Y-90539744D01*
X43525503Y-90539736D01*
X43530490Y-90514669D01*
X43530492Y-90514669D01*
X43530492Y-90514649D01*
X43531882Y-90507669D01*
X43535456Y-90489693D01*
X43535457Y-90489693D01*
X43535457Y-90489688D01*
X43550500Y-90414069D01*
X43550500Y-89523188D01*
X43552403Y-89503873D01*
X43555498Y-89488310D01*
X43555500Y-89488298D01*
X43555500Y-89277868D01*
X43559808Y-89248982D01*
X43657931Y-88927325D01*
X43672952Y-88878086D01*
X43676679Y-88858288D01*
X43681207Y-88842024D01*
X43694091Y-88807483D01*
X43700500Y-88747873D01*
X43700499Y-88052128D01*
X43694091Y-87992517D01*
X43679077Y-87952262D01*
X43643797Y-87857670D01*
X43559156Y-87744605D01*
X43557807Y-87742696D01*
X43557637Y-87742522D01*
X43502844Y-87701504D01*
X43502843Y-87701503D01*
X43442331Y-87656202D01*
X43442328Y-87656201D01*
X43312428Y-87607752D01*
X43308939Y-87606234D01*
X43308025Y-87605996D01*
X43305927Y-87605540D01*
X43302206Y-87605341D01*
X43285312Y-87603524D01*
X43276249Y-87602550D01*
X43276248Y-87602549D01*
X43247876Y-87599500D01*
X43247873Y-87599500D01*
X43247870Y-87599500D01*
X42552133Y-87599500D01*
X42552129Y-87599500D01*
X42543938Y-87599500D01*
X42537975Y-87601021D01*
X42529069Y-87601978D01*
X42492520Y-87605907D01*
X42492514Y-87605908D01*
X42492514Y-87605909D01*
X42492506Y-87605912D01*
X42357671Y-87656200D01*
X42242456Y-87742451D01*
X42242454Y-87742453D01*
X42242451Y-87742456D01*
X42242450Y-87742458D01*
X42235698Y-87751477D01*
X42156200Y-87857671D01*
X42105912Y-87992504D01*
X42105908Y-87992520D01*
X42105908Y-87992521D01*
X42099500Y-88052132D01*
X42099500Y-88747920D01*
X42099584Y-88748648D01*
X42104281Y-88792349D01*
X42105908Y-88807480D01*
X42105909Y-88807485D01*
X42118788Y-88842016D01*
X42120667Y-88847053D01*
X42126416Y-88871786D01*
X42127046Y-88878083D01*
X42127047Y-88878087D01*
X42240192Y-89248983D01*
X42244500Y-89277870D01*
X42244500Y-89488309D01*
X42247597Y-89503874D01*
X42249500Y-89523190D01*
X42249500Y-90023865D01*
X42244654Y-90054460D01*
X42238573Y-90073174D01*
X42202608Y-90122673D01*
X42189366Y-90130787D01*
X42173818Y-90138709D01*
X42128874Y-90149500D01*
X41852972Y-90149500D01*
X41840619Y-90148726D01*
X41819277Y-90146042D01*
X41819276Y-90146042D01*
X41781673Y-90148726D01*
X41774346Y-90149249D01*
X41767298Y-90149500D01*
X40385927Y-90149500D01*
X40323092Y-90161999D01*
X40323091Y-90161998D01*
X40261994Y-90174153D01*
X40260468Y-90174428D01*
X40260256Y-90174499D01*
X40260255Y-90174499D01*
X40260252Y-90174500D01*
X40260247Y-90174501D01*
X40260247Y-90174502D01*
X40141871Y-90223535D01*
X40141865Y-90223538D01*
X40140185Y-90224661D01*
X40113932Y-90237077D01*
X40087039Y-90245236D01*
X40058297Y-90249500D01*
X39952126Y-90249500D01*
X39949749Y-90249755D01*
X39927635Y-90252132D01*
X39927635Y-90252133D01*
X39918856Y-90253076D01*
X39892518Y-90255908D01*
X39892512Y-90255909D01*
X39892510Y-90255910D01*
X39892507Y-90255910D01*
X39892503Y-90255912D01*
X39757671Y-90306200D01*
X39642459Y-90392447D01*
X39642447Y-90392459D01*
X39556200Y-90507671D01*
X39505912Y-90642503D01*
X39505910Y-90642511D01*
X39505908Y-90642517D01*
X39502737Y-90672017D01*
X39499500Y-90702126D01*
X39499500Y-94497871D01*
X39505908Y-94557479D01*
X39505910Y-94557490D01*
X39510238Y-94569091D01*
X39540867Y-94651211D01*
X39547018Y-94681567D01*
X39547506Y-94692948D01*
X39531109Y-94751895D01*
X39483205Y-94789943D01*
X39476038Y-94792616D01*
X39474329Y-94793254D01*
X39439723Y-94799500D01*
X38123238Y-94799500D01*
X38065047Y-94780593D01*
X38031913Y-94738719D01*
X38027022Y-94727033D01*
X37964667Y-94578033D01*
X37708175Y-93965136D01*
X37700500Y-93926917D01*
X37700500Y-90702127D01*
X37700403Y-90701227D01*
X37699948Y-90696998D01*
X37699951Y-90696985D01*
X37699947Y-90696986D01*
X37694091Y-90642516D01*
X37687195Y-90624027D01*
X37662954Y-90559033D01*
X37643798Y-90507671D01*
X37562868Y-90399561D01*
X37561121Y-90396731D01*
X37557547Y-90392453D01*
X37519720Y-90364137D01*
X37519718Y-90364135D01*
X37442327Y-90306200D01*
X37312426Y-90257751D01*
X37308943Y-90256235D01*
X37308011Y-90255993D01*
X37305928Y-90255540D01*
X37302207Y-90255341D01*
X37285313Y-90253524D01*
X37276250Y-90252550D01*
X37276249Y-90252549D01*
X37247877Y-90249500D01*
X37247874Y-90249500D01*
X36252126Y-90249500D01*
X36249959Y-90249732D01*
X36227634Y-90252132D01*
X36227635Y-90252133D01*
X36192520Y-90255907D01*
X36187345Y-90257226D01*
X36187227Y-90256765D01*
X36163420Y-90261586D01*
X36152044Y-90262073D01*
X36093098Y-90245672D01*
X36055050Y-90197756D01*
X36051740Y-90188880D01*
X36045500Y-90154288D01*
X36045500Y-84715180D01*
X36050343Y-84684594D01*
X36054465Y-84671905D01*
X36090423Y-84622406D01*
X36091022Y-84621971D01*
X36094563Y-84619400D01*
X36152743Y-84600500D01*
X41360747Y-84600500D01*
X41391334Y-84605344D01*
G37*
G04 #@! TD.AperFunction*
G04 #@! TA.AperFunction,Conductor*
G36*
X49260408Y-84605343D02*
G01*
X49273095Y-84609466D01*
X49322595Y-84645427D01*
X49322596Y-84645428D01*
X49325591Y-84649550D01*
X49344500Y-84707740D01*
X49344500Y-89981757D01*
X49343228Y-89985669D01*
X49339654Y-90012351D01*
X49336133Y-90023187D01*
X49326917Y-90035870D01*
X49325593Y-90039948D01*
X49322124Y-90042468D01*
X49300169Y-90072687D01*
X49241979Y-90091593D01*
X49236618Y-90091593D01*
X49195490Y-90082646D01*
X49192323Y-90081199D01*
X49079162Y-90038993D01*
X49079154Y-90038990D01*
X49057488Y-90030910D01*
X49057483Y-90030909D01*
X49057481Y-90030908D01*
X49057477Y-90030908D01*
X49044357Y-90029497D01*
X49044353Y-90029496D01*
X49028507Y-90027792D01*
X49026249Y-90027550D01*
X49026248Y-90027549D01*
X48997876Y-90024500D01*
X48997873Y-90024500D01*
X48997870Y-90024500D01*
X48888499Y-90024500D01*
X48830308Y-90005593D01*
X48799153Y-89968142D01*
X48762008Y-89890314D01*
X48754007Y-89829654D01*
X48755538Y-89822768D01*
X48761327Y-89800498D01*
X48795267Y-89669914D01*
X48795916Y-89667418D01*
X48796033Y-89667448D01*
X48799345Y-89655910D01*
X48819412Y-89602114D01*
X48825500Y-89545485D01*
X48825499Y-89004516D01*
X48819412Y-88947886D01*
X48771628Y-88819774D01*
X48689687Y-88710313D01*
X48647327Y-88678603D01*
X48608449Y-88649499D01*
X48580228Y-88628373D01*
X48580229Y-88628373D01*
X48519154Y-88605593D01*
X48456251Y-88582131D01*
X48452786Y-88580659D01*
X48423239Y-88577483D01*
X48413895Y-88576479D01*
X48413893Y-88576478D01*
X48395488Y-88574500D01*
X48395485Y-88574500D01*
X48395481Y-88574500D01*
X47894899Y-88574500D01*
X47878044Y-88573055D01*
X47875887Y-88572682D01*
X47871369Y-88572127D01*
X47821366Y-88570920D01*
X47169056Y-88619238D01*
X47145042Y-88623188D01*
X47128978Y-88624500D01*
X46951515Y-88624500D01*
X46893324Y-88605593D01*
X46871871Y-88584303D01*
X46519811Y-88107462D01*
X46500881Y-88054753D01*
X46500782Y-88054764D01*
X46500737Y-88054351D01*
X46500597Y-88053960D01*
X46500499Y-88052148D01*
X46500499Y-88052133D01*
X46500499Y-88052128D01*
X46494091Y-87992517D01*
X46485392Y-87969196D01*
X46481006Y-87950491D01*
X46480757Y-87950543D01*
X46468867Y-87892504D01*
X46363529Y-87378295D01*
X46352514Y-87324526D01*
X46350500Y-87304658D01*
X46350500Y-87300932D01*
X46350500Y-87300931D01*
X46325501Y-87175256D01*
X46304680Y-87124992D01*
X46300159Y-87111348D01*
X46295081Y-87091239D01*
X46247912Y-86991999D01*
X46240008Y-86931326D01*
X46269277Y-86877595D01*
X46324538Y-86851329D01*
X46337326Y-86850500D01*
X46473917Y-86850500D01*
X46473918Y-86850500D01*
X46618913Y-86821658D01*
X46755495Y-86765084D01*
X46878416Y-86682951D01*
X46982951Y-86578416D01*
X47065084Y-86455495D01*
X47121658Y-86318913D01*
X47150500Y-86173918D01*
X47150500Y-86026082D01*
X47121658Y-85881087D01*
X47065084Y-85744505D01*
X46982951Y-85621584D01*
X46878416Y-85517049D01*
X46755495Y-85434916D01*
X46755493Y-85434915D01*
X46618914Y-85378342D01*
X46618912Y-85378341D01*
X46473920Y-85349500D01*
X46473918Y-85349500D01*
X46326082Y-85349500D01*
X46326081Y-85349500D01*
X46326078Y-85349500D01*
X46181085Y-85378342D01*
X46181083Y-85378342D01*
X46044510Y-85434912D01*
X46044498Y-85434918D01*
X45921586Y-85517047D01*
X45817047Y-85621586D01*
X45734918Y-85744498D01*
X45734912Y-85744510D01*
X45678342Y-85881083D01*
X45678342Y-85881085D01*
X45649500Y-86026078D01*
X45649500Y-86049330D01*
X45630593Y-86107521D01*
X45581093Y-86143485D01*
X45519907Y-86143485D01*
X45470407Y-86107521D01*
X45468816Y-86105265D01*
X45037816Y-85475863D01*
X45020500Y-85419928D01*
X45020500Y-85176047D01*
X45020499Y-85176028D01*
X45017909Y-85137854D01*
X45017839Y-85135783D01*
X45017683Y-85134510D01*
X45017683Y-85134508D01*
X45017683Y-85134505D01*
X44973037Y-84954979D01*
X44890842Y-84789247D01*
X44878381Y-84773745D01*
X44862991Y-84746865D01*
X44858947Y-84736215D01*
X44855966Y-84675102D01*
X44889458Y-84623923D01*
X44889755Y-84623683D01*
X44891037Y-84622653D01*
X44935262Y-84602418D01*
X44935895Y-84602302D01*
X44936915Y-84602116D01*
X44954728Y-84600500D01*
X49229820Y-84600500D01*
X49260408Y-84605343D01*
G37*
G04 #@! TD.AperFunction*
G04 #@! TD*
G04 #@! TA.AperFunction,Conductor*
G04 #@! TO.N,GND*
G36*
X47478994Y-92300000D02*
G01*
X47429316Y-92647006D01*
X46777994Y-92600000D01*
X46777994Y-92000000D01*
X47429316Y-91952994D01*
X47478994Y-92300000D01*
G37*
G04 #@! TD.AperFunction*
G04 #@! TD*
G04 #@! TA.AperFunction,Conductor*
G04 #@! TO.N,VIN*
G36*
X45705617Y-88402074D02*
G01*
X46242552Y-88695924D01*
X46248164Y-88702902D01*
X46248435Y-88708344D01*
X46101790Y-89490456D01*
X46096897Y-89497956D01*
X46090290Y-89500000D01*
X45309710Y-89500000D01*
X45301437Y-89496573D01*
X45298210Y-89490456D01*
X45151564Y-88708344D01*
X45153408Y-88699581D01*
X45157445Y-88695925D01*
X45694383Y-88402073D01*
X45703286Y-88401109D01*
X45705617Y-88402074D01*
G37*
G04 #@! TD.AperFunction*
G04 #@! TD*
G04 #@! TA.AperFunction,Conductor*
G04 #@! TO.N,VIN*
G36*
X45161774Y-88226315D02*
G01*
X45184256Y-88234208D01*
X45721130Y-88422686D01*
X45727801Y-88428659D01*
X45727804Y-88428666D01*
X45972145Y-88938173D01*
X45972632Y-88947114D01*
X45966654Y-88953782D01*
X45965422Y-88954289D01*
X45437132Y-89137132D01*
X45520574Y-89420116D01*
X45519627Y-89429020D01*
X45512661Y-89434647D01*
X45509352Y-89435125D01*
X44936700Y-89435125D01*
X44928427Y-89431698D01*
X44925000Y-89423425D01*
X44925000Y-88927325D01*
X44925891Y-88922848D01*
X45012868Y-88712868D01*
X45146639Y-88234205D01*
X45152165Y-88227162D01*
X45161055Y-88226089D01*
X45161774Y-88226315D01*
G37*
G04 #@! TD.AperFunction*
G04 #@! TD*
G04 #@! TA.AperFunction,Conductor*
G04 #@! TO.N,VIN*
G36*
X45697876Y-89997514D02*
G01*
X46214399Y-90445168D01*
X46218406Y-90453176D01*
X46218017Y-90457113D01*
X46116396Y-90826608D01*
X46110898Y-90833676D01*
X46102012Y-90834786D01*
X46101700Y-90834695D01*
X45404875Y-90622040D01*
X45398512Y-90617274D01*
X45270612Y-90422605D01*
X45268933Y-90413809D01*
X45272115Y-90407910D01*
X45681942Y-89998083D01*
X45690214Y-89994657D01*
X45697876Y-89997514D01*
G37*
G04 #@! TD.AperFunction*
G04 #@! TD*
G04 #@! TA.AperFunction,Conductor*
G04 #@! TO.N,VIN*
G36*
X47609693Y-90298405D02*
G01*
X47609753Y-90298433D01*
X47611843Y-90299689D01*
X48311729Y-90826753D01*
X48314770Y-90830157D01*
X48315675Y-90831692D01*
X48316924Y-90840559D01*
X48316922Y-90840567D01*
X48316734Y-90841293D01*
X48312446Y-90847706D01*
X47612692Y-91374670D01*
X47608582Y-91376652D01*
X47605719Y-91377392D01*
X47598663Y-91377012D01*
X47598602Y-91376989D01*
X47596410Y-91375887D01*
X47225002Y-91137500D01*
X47225001Y-91137500D01*
X47225000Y-91137500D01*
X46901527Y-91137500D01*
X46897050Y-91136609D01*
X46895401Y-91135926D01*
X46889072Y-91129595D01*
X46888389Y-91127945D01*
X46887500Y-91123472D01*
X46887500Y-90551527D01*
X46888389Y-90547054D01*
X46888423Y-90546969D01*
X46889071Y-90545406D01*
X46895396Y-90539075D01*
X46897054Y-90538389D01*
X46901527Y-90537500D01*
X47225000Y-90537500D01*
X47595519Y-90299683D01*
X47599763Y-90298015D01*
X47602676Y-90297492D01*
X47609693Y-90298405D01*
G37*
G04 #@! TD.AperFunction*
G04 #@! TD*
G04 #@! TA.AperFunction,Conductor*
G04 #@! TO.N,VIN*
G36*
X45706999Y-88404228D02*
G01*
X46224711Y-88790995D01*
X46229288Y-88798692D01*
X46229051Y-88803242D01*
X46102237Y-89303674D01*
X46096882Y-89310852D01*
X46090895Y-89312500D01*
X45309105Y-89312500D01*
X45300832Y-89309073D01*
X45297763Y-89303674D01*
X45170948Y-88803240D01*
X45172238Y-88794381D01*
X45175285Y-88790997D01*
X45692999Y-88404229D01*
X45701676Y-88402024D01*
X45706999Y-88404228D01*
G37*
G04 #@! TD.AperFunction*
G04 #@! TD*
G04 #@! TA.AperFunction,Conductor*
G04 #@! TO.N,VIN*
G36*
X47225000Y-90537500D02*
G01*
X47235973Y-90537500D01*
X47240448Y-90538390D01*
X47241281Y-90538734D01*
X47242093Y-90539071D01*
X47248425Y-90545399D01*
X47248427Y-90545402D01*
X47249109Y-90547048D01*
X47250000Y-90551527D01*
X47250000Y-91123472D01*
X47249109Y-91127951D01*
X47248427Y-91129597D01*
X47242099Y-91135926D01*
X47241227Y-91136287D01*
X47240452Y-91136608D01*
X47235973Y-91137500D01*
X47224972Y-91137500D01*
X46729661Y-91149882D01*
X46726632Y-91149561D01*
X46723743Y-91148866D01*
X46720901Y-91147775D01*
X46170490Y-90849158D01*
X46166981Y-90846243D01*
X46165900Y-90844909D01*
X46163353Y-90836326D01*
X46166807Y-90829182D01*
X46167408Y-90828593D01*
X46170223Y-90826561D01*
X46823359Y-90489971D01*
X46826673Y-90488852D01*
X46830014Y-90488260D01*
X46833508Y-90488174D01*
X47225000Y-90537500D01*
G37*
G04 #@! TD.AperFunction*
G04 #@! TD*
G04 #@! TA.AperFunction,Conductor*
G04 #@! TO.N,VIN*
G36*
X47844760Y-88826279D02*
G01*
X47845613Y-88826560D01*
X47847724Y-88827257D01*
X47854276Y-88832668D01*
X48038344Y-89162669D01*
X48096687Y-89267268D01*
X48098090Y-89271612D01*
X48098482Y-89274974D01*
X48097079Y-89282028D01*
X47854770Y-89716445D01*
X47851810Y-89719923D01*
X47849362Y-89721859D01*
X47841240Y-89724350D01*
X47188157Y-89675973D01*
X47183759Y-89674755D01*
X47181944Y-89673841D01*
X47176238Y-89667466D01*
X47175732Y-89666104D01*
X47175000Y-89662029D01*
X47175000Y-88888192D01*
X47175890Y-88883716D01*
X47176668Y-88881835D01*
X47182602Y-88875678D01*
X47183925Y-88875072D01*
X47187928Y-88874041D01*
X47840232Y-88825723D01*
X47844760Y-88826279D01*
G37*
G04 #@! TD.AperFunction*
G04 #@! TD*
G04 #@! TA.AperFunction,Conductor*
G04 #@! TO.N,VIN*
G36*
X46250508Y-88175679D02*
G01*
X46255427Y-88179532D01*
X46842546Y-88974742D01*
X46844703Y-88983433D01*
X46841406Y-88989964D01*
X46289964Y-89541406D01*
X46281691Y-89544833D01*
X46274742Y-89542546D01*
X45479532Y-88955427D01*
X45474911Y-88947756D01*
X45475664Y-88941554D01*
X45697438Y-88403790D01*
X45703758Y-88397451D01*
X46241554Y-88175665D01*
X46250508Y-88175679D01*
G37*
G04 #@! TD.AperFunction*
G04 #@! TD*
G04 #@! TA.AperFunction,Conductor*
G04 #@! TO.N,VIN*
G36*
X46251026Y-88300454D02*
G01*
X46254713Y-88303805D01*
X46369877Y-88465627D01*
X46705257Y-88936885D01*
X46767859Y-89024849D01*
X46769864Y-89033576D01*
X46766600Y-89039906D01*
X46215119Y-89591387D01*
X46206846Y-89594814D01*
X46199783Y-89592441D01*
X45342669Y-88943399D01*
X45338142Y-88935673D01*
X45339865Y-88927785D01*
X45634350Y-88465625D01*
X45641181Y-88460614D01*
X46242150Y-88299289D01*
X46251026Y-88300454D01*
G37*
G04 #@! TD.AperFunction*
G04 #@! TD*
G04 #@! TA.AperFunction,Conductor*
G04 #@! TO.N,VIN*
G36*
X47699063Y-88894617D02*
G01*
X47934040Y-89001604D01*
X47937746Y-89004270D01*
X47939673Y-89006336D01*
X47942730Y-89012891D01*
X47942764Y-89013168D01*
X47942775Y-89015927D01*
X47862472Y-89715619D01*
X47861075Y-89719968D01*
X47859518Y-89722770D01*
X47853452Y-89728022D01*
X47528186Y-89851808D01*
X47523685Y-89852568D01*
X47520593Y-89852478D01*
X47512660Y-89849056D01*
X47105006Y-89441402D01*
X47102472Y-89437612D01*
X47101788Y-89435962D01*
X47101786Y-89427013D01*
X47102370Y-89425602D01*
X47105319Y-89421416D01*
X47683477Y-88897625D01*
X47687390Y-88895281D01*
X47690279Y-88894249D01*
X47699063Y-88894617D01*
G37*
G04 #@! TD.AperFunction*
G04 #@! TD*
G04 #@! TA.AperFunction,Conductor*
G04 #@! TO.N,VIN*
G36*
X47632376Y-89116095D02*
G01*
X48095661Y-89272588D01*
X48102403Y-89278483D01*
X48102735Y-89279216D01*
X48283224Y-89717301D01*
X48283207Y-89726256D01*
X48280161Y-89730519D01*
X47678775Y-90262856D01*
X47670309Y-90265773D01*
X47662747Y-90262368D01*
X47112610Y-89712231D01*
X47109183Y-89703958D01*
X47112100Y-89696228D01*
X47619854Y-89119449D01*
X47627892Y-89115505D01*
X47632376Y-89116095D01*
G37*
G04 #@! TD.AperFunction*
G04 #@! TD*
G04 #@! TA.AperFunction,Conductor*
G04 #@! TO.N,VIN*
G36*
X47739651Y-89850891D02*
G01*
X47760721Y-89859618D01*
X48019655Y-89966872D01*
X48020984Y-89967524D01*
X48494531Y-90238662D01*
X48549072Y-90269891D01*
X48554548Y-90276975D01*
X48554074Y-90284505D01*
X48329906Y-90828025D01*
X48323584Y-90834367D01*
X48315290Y-90834630D01*
X47464864Y-90542604D01*
X47459578Y-90538909D01*
X47454656Y-90532843D01*
X47293091Y-90638202D01*
X47284289Y-90639851D01*
X47276900Y-90634793D01*
X47275000Y-90628402D01*
X47275000Y-89861700D01*
X47278427Y-89853427D01*
X47286700Y-89850000D01*
X47735174Y-89850000D01*
X47739651Y-89850891D01*
G37*
G04 #@! TD.AperFunction*
G04 #@! TD*
G04 #@! TA.AperFunction,Conductor*
G04 #@! TO.N,VIN*
G36*
X48400893Y-89728427D02*
G01*
X48403177Y-89731658D01*
X48510867Y-89957294D01*
X48658940Y-90267542D01*
X48659411Y-90276485D01*
X48656661Y-90280848D01*
X48107798Y-90830687D01*
X48099528Y-90834121D01*
X48091747Y-90831167D01*
X47543800Y-90344281D01*
X47539891Y-90336224D01*
X47540813Y-90330936D01*
X47796963Y-89732098D01*
X47803367Y-89725840D01*
X47807720Y-89725000D01*
X48392620Y-89725000D01*
X48400893Y-89728427D01*
G37*
G04 #@! TD.AperFunction*
G04 #@! TD*
G04 #@! TA.AperFunction,Conductor*
G04 #@! TO.N,VIN*
G36*
X48106833Y-89278918D02*
G01*
X48543494Y-89593203D01*
X48548207Y-89600817D01*
X48547983Y-89605642D01*
X48402276Y-90166243D01*
X48396878Y-90173388D01*
X48390952Y-90175000D01*
X47809048Y-90175000D01*
X47800775Y-90171573D01*
X47797724Y-90166243D01*
X47652016Y-89605642D01*
X47653252Y-89596773D01*
X47656502Y-89593206D01*
X48093165Y-89278918D01*
X48101882Y-89276867D01*
X48106833Y-89278918D01*
G37*
G04 #@! TD.AperFunction*
G04 #@! TD*
G04 #@! TA.AperFunction,Conductor*
G04 #@! TO.N,VIN*
G36*
X46543058Y-89998084D02*
G01*
X46953617Y-90408643D01*
X46957044Y-90416916D01*
X46955777Y-90422212D01*
X46888909Y-90553941D01*
X46882130Y-90559760D01*
X46159627Y-90797309D01*
X46150698Y-90796637D01*
X46145154Y-90790646D01*
X46008227Y-90457781D01*
X46008249Y-90448827D01*
X46011382Y-90444490D01*
X46527124Y-89997514D01*
X46535619Y-89994687D01*
X46543058Y-89998084D01*
G37*
G04 #@! TD.AperFunction*
G04 #@! TD*
G04 #@! TA.AperFunction,Conductor*
G04 #@! TO.N,LED_1-*
G36*
X36068131Y-93605805D02*
G01*
X36429736Y-93711587D01*
X37444644Y-94008482D01*
X37451622Y-94014093D01*
X37452152Y-94015194D01*
X37728974Y-94676669D01*
X37854075Y-94975600D01*
X37854108Y-94984555D01*
X37851555Y-94988390D01*
X37439256Y-95400689D01*
X37430983Y-95404116D01*
X37425030Y-95402488D01*
X36209167Y-94683829D01*
X36203788Y-94676669D01*
X36203537Y-94675404D01*
X36053263Y-93618678D01*
X36055490Y-93610008D01*
X36063199Y-93605451D01*
X36068131Y-93605805D01*
G37*
G04 #@! TD.AperFunction*
G04 #@! TD*
G04 #@! TA.AperFunction,Conductor*
G04 #@! TO.N,LED_1-*
G36*
X36068131Y-93605805D02*
G01*
X36429736Y-93711587D01*
X37444644Y-94008482D01*
X37451622Y-94014093D01*
X37452152Y-94015194D01*
X37728974Y-94676669D01*
X37854075Y-94975600D01*
X37854108Y-94984555D01*
X37851555Y-94988390D01*
X37439256Y-95400689D01*
X37430983Y-95404116D01*
X37425030Y-95402488D01*
X36209167Y-94683829D01*
X36203788Y-94676669D01*
X36203537Y-94675404D01*
X36053263Y-93618678D01*
X36055490Y-93610008D01*
X36063199Y-93605451D01*
X36068131Y-93605805D01*
G37*
G04 #@! TD.AperFunction*
G04 #@! TD*
G04 #@! TA.AperFunction,Conductor*
G04 #@! TO.N,LED_1+*
G36*
X47611111Y-93224137D02*
G01*
X47993741Y-93512285D01*
X48311729Y-93751753D01*
X48314770Y-93755157D01*
X48315675Y-93756692D01*
X48316924Y-93765559D01*
X48316922Y-93765567D01*
X48316734Y-93766293D01*
X48312446Y-93772706D01*
X47611868Y-94300291D01*
X47607759Y-94302273D01*
X47605903Y-94302752D01*
X47604652Y-94303075D01*
X47596668Y-94302299D01*
X47340186Y-94179405D01*
X46896244Y-93966689D01*
X46892591Y-93963951D01*
X46890491Y-93961610D01*
X46887500Y-93953797D01*
X46887500Y-93572194D01*
X46888388Y-93567722D01*
X46889594Y-93564811D01*
X46895344Y-93558740D01*
X47595820Y-93223106D01*
X47600236Y-93221975D01*
X47603442Y-93221801D01*
X47611111Y-93224137D01*
G37*
G04 #@! TD.AperFunction*
G04 #@! TD*
G04 #@! TA.AperFunction,Conductor*
G04 #@! TO.N,LED_1+*
G36*
X46797683Y-93464558D02*
G01*
X46849894Y-93475863D01*
X47238505Y-93560011D01*
X47242686Y-93561825D01*
X47244740Y-93563248D01*
X47249300Y-93569559D01*
X47249523Y-93570316D01*
X47250000Y-93573622D01*
X47250000Y-93951914D01*
X47249109Y-93956393D01*
X47247993Y-93959086D01*
X47243448Y-93964489D01*
X47243336Y-93964560D01*
X47240992Y-93965702D01*
X46835123Y-94110022D01*
X46830607Y-94110683D01*
X46826493Y-94110473D01*
X46821731Y-94109188D01*
X46525239Y-93956393D01*
X46172289Y-93774501D01*
X46168717Y-93771658D01*
X46167700Y-93770456D01*
X46164972Y-93761927D01*
X46168525Y-93754463D01*
X46169241Y-93753775D01*
X46172405Y-93751608D01*
X46786674Y-93465784D01*
X46790306Y-93464766D01*
X46793191Y-93464445D01*
X46793913Y-93464365D01*
X46797683Y-93464558D01*
G37*
G04 #@! TD.AperFunction*
G04 #@! TD*
G04 #@! TA.AperFunction,Conductor*
G04 #@! TO.N,LED_1+*
G36*
X46907387Y-97306421D02*
G01*
X46910784Y-97313852D01*
X46956220Y-97943437D01*
X46953397Y-97951935D01*
X46946208Y-97955861D01*
X46611658Y-98003756D01*
X46608342Y-98003756D01*
X46273791Y-97955861D01*
X46266087Y-97951296D01*
X46263779Y-97943437D01*
X46309216Y-97313852D01*
X46313230Y-97305847D01*
X46320886Y-97302994D01*
X46899114Y-97302994D01*
X46907387Y-97306421D01*
G37*
G04 #@! TD.AperFunction*
G04 #@! TD*
G04 #@! TA.AperFunction,Conductor*
G04 #@! TO.N,LED_1+*
G36*
X48333264Y-93769779D02*
G01*
X48881716Y-94319206D01*
X48885135Y-94327481D01*
X48884037Y-94332419D01*
X48628151Y-94880748D01*
X48621547Y-94886796D01*
X48617549Y-94887500D01*
X48032451Y-94887500D01*
X48024178Y-94884073D01*
X48021849Y-94880748D01*
X47765962Y-94332419D01*
X47765568Y-94323473D01*
X47768282Y-94319206D01*
X48316721Y-93769793D01*
X48324990Y-93766360D01*
X48333264Y-93769779D01*
G37*
G04 #@! TD.AperFunction*
G04 #@! TD*
G04 #@! TA.AperFunction,Conductor*
G04 #@! TO.N,LED_1+*
G36*
X39947387Y-97306421D02*
G01*
X39950784Y-97313852D01*
X39996220Y-97943437D01*
X39993397Y-97951935D01*
X39986208Y-97955861D01*
X39651658Y-98003756D01*
X39648342Y-98003756D01*
X39313791Y-97955861D01*
X39306087Y-97951296D01*
X39303779Y-97943437D01*
X39349216Y-97313852D01*
X39353230Y-97305847D01*
X39360886Y-97302994D01*
X39939114Y-97302994D01*
X39947387Y-97306421D01*
G37*
G04 #@! TD.AperFunction*
G04 #@! TD*
G04 #@! TA.AperFunction,Conductor*
G04 #@! TO.N,GND*
G36*
X36897006Y-98145684D02*
G01*
X36850000Y-98797006D01*
X36250000Y-98797006D01*
X36202994Y-98145684D01*
X36550000Y-98096006D01*
X36897006Y-98145684D01*
G37*
G04 #@! TD.AperFunction*
G04 #@! TD*
G04 #@! TA.AperFunction,Conductor*
G04 #@! TO.N,GND*
G36*
X41847006Y-97045684D02*
G01*
X41800000Y-97697006D01*
X41200000Y-97697006D01*
X41152994Y-97045684D01*
X41500000Y-96996006D01*
X41847006Y-97045684D01*
G37*
G04 #@! TD.AperFunction*
G04 #@! TD*
G04 #@! TA.AperFunction,Conductor*
G04 #@! TO.N,GND*
G36*
X48807006Y-98145684D02*
G01*
X48760000Y-98797006D01*
X48160000Y-98797006D01*
X48112994Y-98145684D01*
X48460000Y-98096006D01*
X48807006Y-98145684D01*
G37*
G04 #@! TD.AperFunction*
G04 #@! TD*
G04 #@! TA.AperFunction,Conductor*
G04 #@! TO.N,GND*
G36*
X49028567Y-87725000D02*
G01*
X48985842Y-88022433D01*
X48427567Y-87975000D01*
X48427567Y-87475000D01*
X48985842Y-87427567D01*
X49028567Y-87725000D01*
G37*
G04 #@! TD.AperFunction*
G04 #@! TD*
G04 #@! TA.AperFunction,Conductor*
G04 #@! TO.N,GND*
G36*
X43857006Y-97045684D02*
G01*
X43810000Y-97697006D01*
X43210000Y-97697006D01*
X43162994Y-97045684D01*
X43510000Y-96996006D01*
X43857006Y-97045684D01*
G37*
G04 #@! TD.AperFunction*
G04 #@! TD*
G04 #@! TA.AperFunction,Conductor*
G04 #@! TO.N,Net-(D1-A)*
G36*
X42906999Y-88404228D02*
G01*
X43264711Y-88671464D01*
X43424381Y-88790749D01*
X43428958Y-88798446D01*
X43428570Y-88803536D01*
X43300000Y-89225000D01*
X43300000Y-89488300D01*
X43296573Y-89496573D01*
X43288300Y-89500000D01*
X42511700Y-89500000D01*
X42503427Y-89496573D01*
X42500000Y-89488300D01*
X42500000Y-89225000D01*
X42371429Y-88803536D01*
X42372293Y-88794623D01*
X42375618Y-88790749D01*
X42892999Y-88404229D01*
X42901676Y-88402024D01*
X42906999Y-88404228D01*
G37*
G04 #@! TD.AperFunction*
G04 #@! TD*
G04 #@! TA.AperFunction,Conductor*
G04 #@! TO.N,Net-(D1-A)*
G36*
X41845962Y-90403723D02*
G01*
X41849969Y-90411731D01*
X41849999Y-90412564D01*
X41849999Y-91192285D01*
X41846572Y-91200558D01*
X41842908Y-91203039D01*
X41157274Y-91496882D01*
X41148320Y-91496991D01*
X41144398Y-91494407D01*
X40452432Y-90803428D01*
X40448999Y-90795157D01*
X40448999Y-90510894D01*
X40452426Y-90502621D01*
X40459865Y-90499224D01*
X41837467Y-90400894D01*
X41845962Y-90403723D01*
G37*
G04 #@! TD.AperFunction*
G04 #@! TD*
G04 #@! TA.AperFunction,Conductor*
G04 #@! TO.N,VIN*
G36*
X40382016Y-87068844D02*
G01*
X40933507Y-87620335D01*
X40936934Y-87628608D01*
X40935733Y-87633771D01*
X40702685Y-88107710D01*
X40695959Y-88113622D01*
X40693987Y-88114108D01*
X39747272Y-88261574D01*
X39738570Y-88259461D01*
X39734142Y-88252937D01*
X39698307Y-88114108D01*
X39624877Y-87829631D01*
X39626128Y-87820767D01*
X39627863Y-87818507D01*
X40365472Y-87068974D01*
X40373715Y-87065483D01*
X40382016Y-87068844D01*
G37*
G04 #@! TD.AperFunction*
G04 #@! TD*
G04 #@! TA.AperFunction,Conductor*
G04 #@! TO.N,VIN*
G36*
X41532899Y-85664193D02*
G01*
X42141975Y-85846676D01*
X42148916Y-85852333D01*
X42150305Y-85858400D01*
X42113438Y-86693988D01*
X42109649Y-86702102D01*
X42108128Y-86703280D01*
X41413353Y-87155112D01*
X41404549Y-87156750D01*
X41398701Y-87153577D01*
X40846822Y-86601698D01*
X40843395Y-86593425D01*
X40845664Y-86586502D01*
X41520116Y-85668474D01*
X41527775Y-85663837D01*
X41532899Y-85664193D01*
G37*
G04 #@! TD.AperFunction*
G04 #@! TD*
G04 #@! TA.AperFunction,Conductor*
G04 #@! TO.N,VIN*
G36*
X43513070Y-85167962D02*
G01*
X43516463Y-85170358D01*
X44127925Y-85791794D01*
X44131285Y-85800095D01*
X44127925Y-85808206D01*
X43516463Y-86429641D01*
X43508218Y-86433135D01*
X43504124Y-86432430D01*
X42872701Y-86202800D01*
X42866098Y-86196752D01*
X42865000Y-86191805D01*
X42865000Y-85408194D01*
X42868427Y-85399921D01*
X42872699Y-85397199D01*
X43504126Y-85167569D01*
X43513070Y-85167962D01*
G37*
G04 #@! TD.AperFunction*
G04 #@! TD*
G04 #@! TA.AperFunction,Conductor*
G04 #@! TO.N,VIN*
G36*
X42681703Y-85227040D02*
G01*
X43241707Y-85397476D01*
X43248624Y-85403163D01*
X43250000Y-85408669D01*
X43250000Y-86191330D01*
X43246573Y-86199603D01*
X43241707Y-86202523D01*
X42681709Y-86372958D01*
X42672796Y-86372089D01*
X42670036Y-86370045D01*
X42502223Y-86202523D01*
X42107293Y-85808279D01*
X42103860Y-85800010D01*
X42107280Y-85791734D01*
X42107294Y-85791720D01*
X42670038Y-85229953D01*
X42678312Y-85226534D01*
X42681703Y-85227040D01*
G37*
G04 #@! TD.AperFunction*
G04 #@! TD*
G04 #@! TA.AperFunction,Conductor*
G04 #@! TO.N,VIN*
G36*
X44770192Y-85540601D02*
G01*
X44775354Y-85544793D01*
X45486477Y-86583266D01*
X45488323Y-86592029D01*
X45485096Y-86598150D01*
X44931832Y-87151414D01*
X44923559Y-87154841D01*
X44919039Y-87153933D01*
X44360204Y-86919886D01*
X44353897Y-86913529D01*
X44353245Y-86911360D01*
X44136146Y-85808705D01*
X44137910Y-85799928D01*
X44143160Y-85795633D01*
X44761239Y-85540589D01*
X44770192Y-85540601D01*
G37*
G04 #@! TD.AperFunction*
G04 #@! TD*
G04 #@! TA.AperFunction,Conductor*
G04 #@! TO.N,VIN*
G36*
X45945151Y-87044467D02*
G01*
X45959861Y-87059176D01*
X45981197Y-87080512D01*
X45983733Y-87084308D01*
X46099570Y-87363964D01*
X46100223Y-87366093D01*
X46229479Y-87997053D01*
X46227782Y-88005846D01*
X46225019Y-88008774D01*
X45707002Y-88395769D01*
X45698324Y-88397975D01*
X45692998Y-88395769D01*
X45174980Y-88008774D01*
X45170403Y-88001077D01*
X45170519Y-87997056D01*
X45292338Y-87402397D01*
X45297355Y-87394982D01*
X45306148Y-87393285D01*
X45313565Y-87398302D01*
X45314609Y-87400270D01*
X45390232Y-87582841D01*
X45390233Y-87582841D01*
X45390233Y-87582842D01*
X45928608Y-87044467D01*
X45936880Y-87041041D01*
X45945151Y-87044467D01*
G37*
G04 #@! TD.AperFunction*
G04 #@! TD*
G04 #@! TA.AperFunction,Conductor*
G04 #@! TO.N,VIN*
G36*
X45730602Y-86523812D02*
G01*
X45920076Y-86713286D01*
X45923503Y-86721559D01*
X45920076Y-86729832D01*
X45914793Y-86732870D01*
X45850000Y-86749999D01*
X45849999Y-86750000D01*
X46064320Y-87200919D01*
X46064777Y-87209863D01*
X46058776Y-87216509D01*
X46058340Y-87216705D01*
X45704587Y-87367467D01*
X45695633Y-87367558D01*
X45695413Y-87367467D01*
X45341659Y-87216705D01*
X45335392Y-87210309D01*
X45335483Y-87201355D01*
X45335660Y-87200960D01*
X45550000Y-86750000D01*
X45593044Y-86646082D01*
X45595576Y-86642291D01*
X45714056Y-86523812D01*
X45722329Y-86520385D01*
X45730602Y-86523812D01*
G37*
G04 #@! TD.AperFunction*
G04 #@! TD*
G04 #@! TA.AperFunction,Conductor*
G04 #@! TO.N,VIN*
G36*
X45730602Y-86523812D02*
G01*
X45920076Y-86713286D01*
X45923503Y-86721559D01*
X45920076Y-86729832D01*
X45914793Y-86732870D01*
X45850000Y-86749999D01*
X45849999Y-86750000D01*
X46064320Y-87200919D01*
X46064777Y-87209863D01*
X46058776Y-87216509D01*
X46058340Y-87216705D01*
X45704587Y-87367467D01*
X45695633Y-87367558D01*
X45695413Y-87367467D01*
X45341659Y-87216705D01*
X45335392Y-87210309D01*
X45335483Y-87201355D01*
X45335660Y-87200960D01*
X45550000Y-86750000D01*
X45593044Y-86646082D01*
X45595576Y-86642291D01*
X45714056Y-86523812D01*
X45722329Y-86520385D01*
X45730602Y-86523812D01*
G37*
G04 #@! TD.AperFunction*
G04 #@! TD*
G04 #@! TA.AperFunction,Conductor*
G04 #@! TO.N,VIN*
G36*
X47420902Y-89119372D02*
G01*
X47830627Y-89529097D01*
X47834054Y-89537370D01*
X47831623Y-89544510D01*
X47386890Y-90121853D01*
X47379126Y-90126316D01*
X47370601Y-90124073D01*
X47060710Y-89891629D01*
X47058370Y-89889289D01*
X46825926Y-89579398D01*
X46823704Y-89570724D01*
X46828145Y-89563110D01*
X47405489Y-89118375D01*
X47414134Y-89116042D01*
X47420902Y-89119372D01*
G37*
G04 #@! TD.AperFunction*
G04 #@! TD*
G04 #@! TA.AperFunction,Conductor*
G04 #@! TO.N,VIN*
G36*
X46479398Y-89925926D02*
G01*
X46789289Y-90158370D01*
X46791629Y-90160710D01*
X47024073Y-90470601D01*
X47026295Y-90479275D01*
X47021853Y-90486890D01*
X46444510Y-90931623D01*
X46435865Y-90933957D01*
X46429097Y-90930627D01*
X46019372Y-90520902D01*
X46015945Y-90512629D01*
X46018376Y-90505489D01*
X46284993Y-90159373D01*
X46463110Y-89928145D01*
X46470873Y-89923683D01*
X46479398Y-89925926D01*
G37*
G04 #@! TD.AperFunction*
G04 #@! TD*
M02*
