%TF.GenerationSoftware,KiCad,Pcbnew,10.0.5*%
%TF.CreationDate,2026-09-11T10:41:05+08:00*%
%TF.ProjectId,Bullet_Charger,42756c6c-6574-45f4-9368-61726765722e,rev?*%
%TF.SameCoordinates,Original*%
%TF.FileFunction,Drillmap*%
%TF.FilePolarity,Positive*%
%FSLAX45Y45*%
G04 Gerber Fmt 4.5, Leading zero omitted, Abs format (unit mm)*
G04 Created by KiCad (PCBNEW 10.0.5) date 2026-09-11 10:41:05*
%MOMM*%
%LPD*%
G01*
G04 APERTURE LIST*
%ADD10C,0.050000*%
%ADD11C,0.200000*%
%ADD12C,0.100000*%
G04 APERTURE END LIST*
D10*
X3554500Y-8410000D02*
X4984500Y-8410000D01*
X4984500Y-10160000D01*
X3554500Y-10160000D01*
X3554500Y-8410000D01*
D11*
D12*
X3625000Y-8965000D02*
X3655000Y-8995000D01*
X3655000Y-8965000D02*
X3625000Y-8995000D01*
X3640000Y-9795000D02*
X3670000Y-9825000D01*
X3670000Y-9795000D02*
X3640000Y-9825000D01*
X3790000Y-8565000D02*
X3820000Y-8595000D01*
X3820000Y-8565000D02*
X3790000Y-8595000D01*
X3950000Y-9785000D02*
X3980000Y-9815000D01*
X3980000Y-9785000D02*
X3950000Y-9815000D01*
X4030000Y-9387500D02*
X4060000Y-9417500D01*
X4060000Y-9387500D02*
X4030000Y-9417500D01*
X4135000Y-9685000D02*
X4165000Y-9715000D01*
X4165000Y-9685000D02*
X4135000Y-9715000D01*
X4315000Y-9215000D02*
X4345000Y-9245000D01*
X4345000Y-9215000D02*
X4315000Y-9245000D01*
X4336000Y-9685000D02*
X4366000Y-9715000D01*
X4366000Y-9685000D02*
X4336000Y-9715000D01*
X4357500Y-9080000D02*
X4387500Y-9110000D01*
X4387500Y-9080000D02*
X4357500Y-9110000D01*
X4415000Y-9215000D02*
X4445000Y-9245000D01*
X4445000Y-9215000D02*
X4415000Y-9245000D01*
X4415000Y-9355000D02*
X4445000Y-9385000D01*
X4445000Y-9355000D02*
X4415000Y-9385000D01*
X4472500Y-9080000D02*
X4502500Y-9110000D01*
X4502500Y-9080000D02*
X4472500Y-9110000D01*
X4646000Y-9785000D02*
X4676000Y-9815000D01*
X4676000Y-9785000D02*
X4646000Y-9815000D01*
X4652500Y-9215000D02*
X4682500Y-9245000D01*
X4682500Y-9215000D02*
X4652500Y-9245000D01*
X4732500Y-9215000D02*
X4762500Y-9245000D01*
X4762500Y-9215000D02*
X4732500Y-9245000D01*
X4831000Y-9795000D02*
X4861000Y-9825000D01*
X4861000Y-9795000D02*
X4831000Y-9825000D01*
X4887500Y-8757500D02*
X4917500Y-8787500D01*
X4917500Y-8757500D02*
X4887500Y-8787500D01*
D11*
X3812777Y-10473984D02*
X3812777Y-10273984D01*
X3812777Y-10273984D02*
X3860396Y-10273984D01*
X3860396Y-10273984D02*
X3888967Y-10283508D01*
X3888967Y-10283508D02*
X3908015Y-10302555D01*
X3908015Y-10302555D02*
X3917539Y-10321603D01*
X3917539Y-10321603D02*
X3927062Y-10359698D01*
X3927062Y-10359698D02*
X3927062Y-10388270D01*
X3927062Y-10388270D02*
X3917539Y-10426365D01*
X3917539Y-10426365D02*
X3908015Y-10445412D01*
X3908015Y-10445412D02*
X3888967Y-10464460D01*
X3888967Y-10464460D02*
X3860396Y-10473984D01*
X3860396Y-10473984D02*
X3812777Y-10473984D01*
X4012777Y-10473984D02*
X4012777Y-10340650D01*
X4012777Y-10378746D02*
X4022301Y-10359698D01*
X4022301Y-10359698D02*
X4031824Y-10350174D01*
X4031824Y-10350174D02*
X4050872Y-10340650D01*
X4050872Y-10340650D02*
X4069920Y-10340650D01*
X4136586Y-10473984D02*
X4136586Y-10340650D01*
X4136586Y-10273984D02*
X4127062Y-10283508D01*
X4127062Y-10283508D02*
X4136586Y-10293031D01*
X4136586Y-10293031D02*
X4146110Y-10283508D01*
X4146110Y-10283508D02*
X4136586Y-10273984D01*
X4136586Y-10273984D02*
X4136586Y-10293031D01*
X4260396Y-10473984D02*
X4241348Y-10464460D01*
X4241348Y-10464460D02*
X4231824Y-10445412D01*
X4231824Y-10445412D02*
X4231824Y-10273984D01*
X4365158Y-10473984D02*
X4346110Y-10464460D01*
X4346110Y-10464460D02*
X4336586Y-10445412D01*
X4336586Y-10445412D02*
X4336586Y-10273984D01*
X4593729Y-10473984D02*
X4593729Y-10273984D01*
X4593729Y-10273984D02*
X4660396Y-10416841D01*
X4660396Y-10416841D02*
X4727063Y-10273984D01*
X4727063Y-10273984D02*
X4727063Y-10473984D01*
X4908015Y-10473984D02*
X4908015Y-10369222D01*
X4908015Y-10369222D02*
X4898491Y-10350174D01*
X4898491Y-10350174D02*
X4879444Y-10340650D01*
X4879444Y-10340650D02*
X4841348Y-10340650D01*
X4841348Y-10340650D02*
X4822301Y-10350174D01*
X4908015Y-10464460D02*
X4888967Y-10473984D01*
X4888967Y-10473984D02*
X4841348Y-10473984D01*
X4841348Y-10473984D02*
X4822301Y-10464460D01*
X4822301Y-10464460D02*
X4812777Y-10445412D01*
X4812777Y-10445412D02*
X4812777Y-10426365D01*
X4812777Y-10426365D02*
X4822301Y-10407317D01*
X4822301Y-10407317D02*
X4841348Y-10397793D01*
X4841348Y-10397793D02*
X4888967Y-10397793D01*
X4888967Y-10397793D02*
X4908015Y-10388270D01*
X5003253Y-10340650D02*
X5003253Y-10540650D01*
X5003253Y-10350174D02*
X5022301Y-10340650D01*
X5022301Y-10340650D02*
X5060396Y-10340650D01*
X5060396Y-10340650D02*
X5079444Y-10350174D01*
X5079444Y-10350174D02*
X5088967Y-10359698D01*
X5088967Y-10359698D02*
X5098491Y-10378746D01*
X5098491Y-10378746D02*
X5098491Y-10435889D01*
X5098491Y-10435889D02*
X5088967Y-10454936D01*
X5088967Y-10454936D02*
X5079444Y-10464460D01*
X5079444Y-10464460D02*
X5060396Y-10473984D01*
X5060396Y-10473984D02*
X5022301Y-10473984D01*
X5022301Y-10473984D02*
X5003253Y-10464460D01*
X5184205Y-10454936D02*
X5193729Y-10464460D01*
X5193729Y-10464460D02*
X5184205Y-10473984D01*
X5184205Y-10473984D02*
X5174682Y-10464460D01*
X5174682Y-10464460D02*
X5184205Y-10454936D01*
X5184205Y-10454936D02*
X5184205Y-10473984D01*
X5184205Y-10350174D02*
X5193729Y-10359698D01*
X5193729Y-10359698D02*
X5184205Y-10369222D01*
X5184205Y-10369222D02*
X5174682Y-10359698D01*
X5174682Y-10359698D02*
X5184205Y-10350174D01*
X5184205Y-10350174D02*
X5184205Y-10369222D01*
D12*
X3522000Y-10787500D02*
X3552000Y-10817500D01*
X3552000Y-10787500D02*
X3522000Y-10817500D01*
D11*
X3850872Y-10693984D02*
X3869920Y-10693984D01*
X3869920Y-10693984D02*
X3888967Y-10703508D01*
X3888967Y-10703508D02*
X3898491Y-10713031D01*
X3898491Y-10713031D02*
X3908015Y-10732079D01*
X3908015Y-10732079D02*
X3917539Y-10770174D01*
X3917539Y-10770174D02*
X3917539Y-10817793D01*
X3917539Y-10817793D02*
X3908015Y-10855889D01*
X3908015Y-10855889D02*
X3898491Y-10874936D01*
X3898491Y-10874936D02*
X3888967Y-10884460D01*
X3888967Y-10884460D02*
X3869920Y-10893984D01*
X3869920Y-10893984D02*
X3850872Y-10893984D01*
X3850872Y-10893984D02*
X3831824Y-10884460D01*
X3831824Y-10884460D02*
X3822301Y-10874936D01*
X3822301Y-10874936D02*
X3812777Y-10855889D01*
X3812777Y-10855889D02*
X3803253Y-10817793D01*
X3803253Y-10817793D02*
X3803253Y-10770174D01*
X3803253Y-10770174D02*
X3812777Y-10732079D01*
X3812777Y-10732079D02*
X3822301Y-10713031D01*
X3822301Y-10713031D02*
X3831824Y-10703508D01*
X3831824Y-10703508D02*
X3850872Y-10693984D01*
X4003253Y-10874936D02*
X4012777Y-10884460D01*
X4012777Y-10884460D02*
X4003253Y-10893984D01*
X4003253Y-10893984D02*
X3993729Y-10884460D01*
X3993729Y-10884460D02*
X4003253Y-10874936D01*
X4003253Y-10874936D02*
X4003253Y-10893984D01*
X4079443Y-10693984D02*
X4203253Y-10693984D01*
X4203253Y-10693984D02*
X4136586Y-10770174D01*
X4136586Y-10770174D02*
X4165158Y-10770174D01*
X4165158Y-10770174D02*
X4184205Y-10779698D01*
X4184205Y-10779698D02*
X4193729Y-10789222D01*
X4193729Y-10789222D02*
X4203253Y-10808270D01*
X4203253Y-10808270D02*
X4203253Y-10855889D01*
X4203253Y-10855889D02*
X4193729Y-10874936D01*
X4193729Y-10874936D02*
X4184205Y-10884460D01*
X4184205Y-10884460D02*
X4165158Y-10893984D01*
X4165158Y-10893984D02*
X4108015Y-10893984D01*
X4108015Y-10893984D02*
X4088967Y-10884460D01*
X4088967Y-10884460D02*
X4079443Y-10874936D01*
X4327063Y-10693984D02*
X4346110Y-10693984D01*
X4346110Y-10693984D02*
X4365158Y-10703508D01*
X4365158Y-10703508D02*
X4374682Y-10713031D01*
X4374682Y-10713031D02*
X4384205Y-10732079D01*
X4384205Y-10732079D02*
X4393729Y-10770174D01*
X4393729Y-10770174D02*
X4393729Y-10817793D01*
X4393729Y-10817793D02*
X4384205Y-10855889D01*
X4384205Y-10855889D02*
X4374682Y-10874936D01*
X4374682Y-10874936D02*
X4365158Y-10884460D01*
X4365158Y-10884460D02*
X4346110Y-10893984D01*
X4346110Y-10893984D02*
X4327063Y-10893984D01*
X4327063Y-10893984D02*
X4308015Y-10884460D01*
X4308015Y-10884460D02*
X4298491Y-10874936D01*
X4298491Y-10874936D02*
X4288967Y-10855889D01*
X4288967Y-10855889D02*
X4279444Y-10817793D01*
X4279444Y-10817793D02*
X4279444Y-10770174D01*
X4279444Y-10770174D02*
X4288967Y-10732079D01*
X4288967Y-10732079D02*
X4298491Y-10713031D01*
X4298491Y-10713031D02*
X4308015Y-10703508D01*
X4308015Y-10703508D02*
X4327063Y-10693984D01*
X4517539Y-10693984D02*
X4536586Y-10693984D01*
X4536586Y-10693984D02*
X4555634Y-10703508D01*
X4555634Y-10703508D02*
X4565158Y-10713031D01*
X4565158Y-10713031D02*
X4574682Y-10732079D01*
X4574682Y-10732079D02*
X4584205Y-10770174D01*
X4584205Y-10770174D02*
X4584205Y-10817793D01*
X4584205Y-10817793D02*
X4574682Y-10855889D01*
X4574682Y-10855889D02*
X4565158Y-10874936D01*
X4565158Y-10874936D02*
X4555634Y-10884460D01*
X4555634Y-10884460D02*
X4536586Y-10893984D01*
X4536586Y-10893984D02*
X4517539Y-10893984D01*
X4517539Y-10893984D02*
X4498491Y-10884460D01*
X4498491Y-10884460D02*
X4488967Y-10874936D01*
X4488967Y-10874936D02*
X4479444Y-10855889D01*
X4479444Y-10855889D02*
X4469920Y-10817793D01*
X4469920Y-10817793D02*
X4469920Y-10770174D01*
X4469920Y-10770174D02*
X4479444Y-10732079D01*
X4479444Y-10732079D02*
X4488967Y-10713031D01*
X4488967Y-10713031D02*
X4498491Y-10703508D01*
X4498491Y-10703508D02*
X4517539Y-10693984D01*
X4669920Y-10893984D02*
X4669920Y-10760650D01*
X4669920Y-10779698D02*
X4679444Y-10770174D01*
X4679444Y-10770174D02*
X4698491Y-10760650D01*
X4698491Y-10760650D02*
X4727063Y-10760650D01*
X4727063Y-10760650D02*
X4746110Y-10770174D01*
X4746110Y-10770174D02*
X4755634Y-10789222D01*
X4755634Y-10789222D02*
X4755634Y-10893984D01*
X4755634Y-10789222D02*
X4765158Y-10770174D01*
X4765158Y-10770174D02*
X4784205Y-10760650D01*
X4784205Y-10760650D02*
X4812777Y-10760650D01*
X4812777Y-10760650D02*
X4831825Y-10770174D01*
X4831825Y-10770174D02*
X4841348Y-10789222D01*
X4841348Y-10789222D02*
X4841348Y-10893984D01*
X4936586Y-10893984D02*
X4936586Y-10760650D01*
X4936586Y-10779698D02*
X4946110Y-10770174D01*
X4946110Y-10770174D02*
X4965158Y-10760650D01*
X4965158Y-10760650D02*
X4993729Y-10760650D01*
X4993729Y-10760650D02*
X5012777Y-10770174D01*
X5012777Y-10770174D02*
X5022301Y-10789222D01*
X5022301Y-10789222D02*
X5022301Y-10893984D01*
X5022301Y-10789222D02*
X5031825Y-10770174D01*
X5031825Y-10770174D02*
X5050872Y-10760650D01*
X5050872Y-10760650D02*
X5079444Y-10760650D01*
X5079444Y-10760650D02*
X5098491Y-10770174D01*
X5098491Y-10770174D02*
X5108015Y-10789222D01*
X5108015Y-10789222D02*
X5108015Y-10893984D01*
X5498491Y-10684460D02*
X5327063Y-10941603D01*
X5755634Y-10693984D02*
X5774682Y-10693984D01*
X5774682Y-10693984D02*
X5793729Y-10703508D01*
X5793729Y-10703508D02*
X5803253Y-10713031D01*
X5803253Y-10713031D02*
X5812777Y-10732079D01*
X5812777Y-10732079D02*
X5822301Y-10770174D01*
X5822301Y-10770174D02*
X5822301Y-10817793D01*
X5822301Y-10817793D02*
X5812777Y-10855889D01*
X5812777Y-10855889D02*
X5803253Y-10874936D01*
X5803253Y-10874936D02*
X5793729Y-10884460D01*
X5793729Y-10884460D02*
X5774682Y-10893984D01*
X5774682Y-10893984D02*
X5755634Y-10893984D01*
X5755634Y-10893984D02*
X5736586Y-10884460D01*
X5736586Y-10884460D02*
X5727063Y-10874936D01*
X5727063Y-10874936D02*
X5717539Y-10855889D01*
X5717539Y-10855889D02*
X5708015Y-10817793D01*
X5708015Y-10817793D02*
X5708015Y-10770174D01*
X5708015Y-10770174D02*
X5717539Y-10732079D01*
X5717539Y-10732079D02*
X5727063Y-10713031D01*
X5727063Y-10713031D02*
X5736586Y-10703508D01*
X5736586Y-10703508D02*
X5755634Y-10693984D01*
X5908015Y-10874936D02*
X5917539Y-10884460D01*
X5917539Y-10884460D02*
X5908015Y-10893984D01*
X5908015Y-10893984D02*
X5898491Y-10884460D01*
X5898491Y-10884460D02*
X5908015Y-10874936D01*
X5908015Y-10874936D02*
X5908015Y-10893984D01*
X6041348Y-10693984D02*
X6060396Y-10693984D01*
X6060396Y-10693984D02*
X6079444Y-10703508D01*
X6079444Y-10703508D02*
X6088967Y-10713031D01*
X6088967Y-10713031D02*
X6098491Y-10732079D01*
X6098491Y-10732079D02*
X6108015Y-10770174D01*
X6108015Y-10770174D02*
X6108015Y-10817793D01*
X6108015Y-10817793D02*
X6098491Y-10855889D01*
X6098491Y-10855889D02*
X6088967Y-10874936D01*
X6088967Y-10874936D02*
X6079444Y-10884460D01*
X6079444Y-10884460D02*
X6060396Y-10893984D01*
X6060396Y-10893984D02*
X6041348Y-10893984D01*
X6041348Y-10893984D02*
X6022301Y-10884460D01*
X6022301Y-10884460D02*
X6012777Y-10874936D01*
X6012777Y-10874936D02*
X6003253Y-10855889D01*
X6003253Y-10855889D02*
X5993729Y-10817793D01*
X5993729Y-10817793D02*
X5993729Y-10770174D01*
X5993729Y-10770174D02*
X6003253Y-10732079D01*
X6003253Y-10732079D02*
X6012777Y-10713031D01*
X6012777Y-10713031D02*
X6022301Y-10703508D01*
X6022301Y-10703508D02*
X6041348Y-10693984D01*
X6298491Y-10893984D02*
X6184206Y-10893984D01*
X6241348Y-10893984D02*
X6241348Y-10693984D01*
X6241348Y-10693984D02*
X6222301Y-10722555D01*
X6222301Y-10722555D02*
X6203253Y-10741603D01*
X6203253Y-10741603D02*
X6184206Y-10751127D01*
X6488967Y-10893984D02*
X6374682Y-10893984D01*
X6431825Y-10893984D02*
X6431825Y-10693984D01*
X6431825Y-10693984D02*
X6412777Y-10722555D01*
X6412777Y-10722555D02*
X6393729Y-10741603D01*
X6393729Y-10741603D02*
X6374682Y-10751127D01*
X6603253Y-10779698D02*
X6584206Y-10770174D01*
X6584206Y-10770174D02*
X6574682Y-10760650D01*
X6574682Y-10760650D02*
X6565158Y-10741603D01*
X6565158Y-10741603D02*
X6565158Y-10732079D01*
X6565158Y-10732079D02*
X6574682Y-10713031D01*
X6574682Y-10713031D02*
X6584206Y-10703508D01*
X6584206Y-10703508D02*
X6603253Y-10693984D01*
X6603253Y-10693984D02*
X6641348Y-10693984D01*
X6641348Y-10693984D02*
X6660396Y-10703508D01*
X6660396Y-10703508D02*
X6669920Y-10713031D01*
X6669920Y-10713031D02*
X6679444Y-10732079D01*
X6679444Y-10732079D02*
X6679444Y-10741603D01*
X6679444Y-10741603D02*
X6669920Y-10760650D01*
X6669920Y-10760650D02*
X6660396Y-10770174D01*
X6660396Y-10770174D02*
X6641348Y-10779698D01*
X6641348Y-10779698D02*
X6603253Y-10779698D01*
X6603253Y-10779698D02*
X6584206Y-10789222D01*
X6584206Y-10789222D02*
X6574682Y-10798746D01*
X6574682Y-10798746D02*
X6565158Y-10817793D01*
X6565158Y-10817793D02*
X6565158Y-10855889D01*
X6565158Y-10855889D02*
X6574682Y-10874936D01*
X6574682Y-10874936D02*
X6584206Y-10884460D01*
X6584206Y-10884460D02*
X6603253Y-10893984D01*
X6603253Y-10893984D02*
X6641348Y-10893984D01*
X6641348Y-10893984D02*
X6660396Y-10884460D01*
X6660396Y-10884460D02*
X6669920Y-10874936D01*
X6669920Y-10874936D02*
X6679444Y-10855889D01*
X6679444Y-10855889D02*
X6679444Y-10817793D01*
X6679444Y-10817793D02*
X6669920Y-10798746D01*
X6669920Y-10798746D02*
X6660396Y-10789222D01*
X6660396Y-10789222D02*
X6641348Y-10779698D01*
X6755634Y-10693984D02*
X6755634Y-10732079D01*
X6831825Y-10693984D02*
X6831825Y-10732079D01*
X7127063Y-10970174D02*
X7117539Y-10960650D01*
X7117539Y-10960650D02*
X7098491Y-10932079D01*
X7098491Y-10932079D02*
X7088968Y-10913031D01*
X7088968Y-10913031D02*
X7079444Y-10884460D01*
X7079444Y-10884460D02*
X7069920Y-10836841D01*
X7069920Y-10836841D02*
X7069920Y-10798746D01*
X7069920Y-10798746D02*
X7079444Y-10751127D01*
X7079444Y-10751127D02*
X7088968Y-10722555D01*
X7088968Y-10722555D02*
X7098491Y-10703508D01*
X7098491Y-10703508D02*
X7117539Y-10674936D01*
X7117539Y-10674936D02*
X7127063Y-10665412D01*
X7308015Y-10893984D02*
X7193729Y-10893984D01*
X7250872Y-10893984D02*
X7250872Y-10693984D01*
X7250872Y-10693984D02*
X7231825Y-10722555D01*
X7231825Y-10722555D02*
X7212777Y-10741603D01*
X7212777Y-10741603D02*
X7193729Y-10751127D01*
X7374682Y-10693984D02*
X7508015Y-10693984D01*
X7508015Y-10693984D02*
X7422301Y-10893984D01*
X7736587Y-10893984D02*
X7736587Y-10693984D01*
X7822301Y-10893984D02*
X7822301Y-10789222D01*
X7822301Y-10789222D02*
X7812777Y-10770174D01*
X7812777Y-10770174D02*
X7793730Y-10760650D01*
X7793730Y-10760650D02*
X7765158Y-10760650D01*
X7765158Y-10760650D02*
X7746110Y-10770174D01*
X7746110Y-10770174D02*
X7736587Y-10779698D01*
X7946110Y-10893984D02*
X7927063Y-10884460D01*
X7927063Y-10884460D02*
X7917539Y-10874936D01*
X7917539Y-10874936D02*
X7908015Y-10855889D01*
X7908015Y-10855889D02*
X7908015Y-10798746D01*
X7908015Y-10798746D02*
X7917539Y-10779698D01*
X7917539Y-10779698D02*
X7927063Y-10770174D01*
X7927063Y-10770174D02*
X7946110Y-10760650D01*
X7946110Y-10760650D02*
X7974682Y-10760650D01*
X7974682Y-10760650D02*
X7993730Y-10770174D01*
X7993730Y-10770174D02*
X8003253Y-10779698D01*
X8003253Y-10779698D02*
X8012777Y-10798746D01*
X8012777Y-10798746D02*
X8012777Y-10855889D01*
X8012777Y-10855889D02*
X8003253Y-10874936D01*
X8003253Y-10874936D02*
X7993730Y-10884460D01*
X7993730Y-10884460D02*
X7974682Y-10893984D01*
X7974682Y-10893984D02*
X7946110Y-10893984D01*
X8127063Y-10893984D02*
X8108015Y-10884460D01*
X8108015Y-10884460D02*
X8098491Y-10865412D01*
X8098491Y-10865412D02*
X8098491Y-10693984D01*
X8279444Y-10884460D02*
X8260396Y-10893984D01*
X8260396Y-10893984D02*
X8222301Y-10893984D01*
X8222301Y-10893984D02*
X8203253Y-10884460D01*
X8203253Y-10884460D02*
X8193730Y-10865412D01*
X8193730Y-10865412D02*
X8193730Y-10789222D01*
X8193730Y-10789222D02*
X8203253Y-10770174D01*
X8203253Y-10770174D02*
X8222301Y-10760650D01*
X8222301Y-10760650D02*
X8260396Y-10760650D01*
X8260396Y-10760650D02*
X8279444Y-10770174D01*
X8279444Y-10770174D02*
X8288968Y-10789222D01*
X8288968Y-10789222D02*
X8288968Y-10808270D01*
X8288968Y-10808270D02*
X8193730Y-10827317D01*
X8365158Y-10884460D02*
X8384206Y-10893984D01*
X8384206Y-10893984D02*
X8422301Y-10893984D01*
X8422301Y-10893984D02*
X8441349Y-10884460D01*
X8441349Y-10884460D02*
X8450873Y-10865412D01*
X8450873Y-10865412D02*
X8450873Y-10855889D01*
X8450873Y-10855889D02*
X8441349Y-10836841D01*
X8441349Y-10836841D02*
X8422301Y-10827317D01*
X8422301Y-10827317D02*
X8393730Y-10827317D01*
X8393730Y-10827317D02*
X8374682Y-10817793D01*
X8374682Y-10817793D02*
X8365158Y-10798746D01*
X8365158Y-10798746D02*
X8365158Y-10789222D01*
X8365158Y-10789222D02*
X8374682Y-10770174D01*
X8374682Y-10770174D02*
X8393730Y-10760650D01*
X8393730Y-10760650D02*
X8422301Y-10760650D01*
X8422301Y-10760650D02*
X8441349Y-10770174D01*
X8517539Y-10970174D02*
X8527063Y-10960650D01*
X8527063Y-10960650D02*
X8546111Y-10932079D01*
X8546111Y-10932079D02*
X8555634Y-10913031D01*
X8555634Y-10913031D02*
X8565158Y-10884460D01*
X8565158Y-10884460D02*
X8574682Y-10836841D01*
X8574682Y-10836841D02*
X8574682Y-10798746D01*
X8574682Y-10798746D02*
X8565158Y-10751127D01*
X8565158Y-10751127D02*
X8555634Y-10722555D01*
X8555634Y-10722555D02*
X8546111Y-10703508D01*
X8546111Y-10703508D02*
X8527063Y-10674936D01*
X8527063Y-10674936D02*
X8517539Y-10665412D01*
M02*
